<?xml version="1.0" standalone="no"?>
<!DOCTYPE svg PUBLIC "-//W3C//DTD SVG 1.1//EN" "http://www.w3.org/Graphics/SVG/1.1/DTD/svg11.dtd" >
<!--
2013-9-30: Created.
-->
<svg>
<metadata>
Created by iconfont
</metadata>
<defs>

<font id="iconfont" horiz-adv-x="1024" >
  <font-face
    font-family="iconfont"
    font-weight="500"
    font-stretch="normal"
    units-per-em="1024"
    ascent="896"
    descent="-128"
  />
    <missing-glyph />
    
    <glyph glyph-name="wechat" unicode="&#58943;" d="M676.464 567.008c11.347 0 22.576-0.812 33.708-2.059-30.295 141.060-181.101 245.867-353.25 245.867-192.464 0-350.109-131.16-350.109-297.734 0-96.185 52.449-175.104 140.097-236.361l-35.017-105.313 122.392 61.364c43.792-8.654 78.933-17.58 122.635-17.58 10.987 0 21.877 0.549 32.685 1.395-6.838 23.392-10.807 47.904-10.807 73.36 0.002 152.949 131.351 277.059 297.665 277.059zM485.748 669.041c29.894 0 54.127-24.234 54.127-54.128s-24.233-54.127-54.127-54.127c-29.896 0-54.128 24.234-54.128 54.127s24.234 54.128 54.128 54.128zM240.789 559.694c-29.894 0-54.129 24.234-54.129 54.127 0 29.894 24.235 54.127 54.129 54.127 29.896 0 54.129-24.234 54.129-54.127 0-29.893-24.233-54.127-54.129-54.127zM993.535 293.016c0 139.971-140.062 254.068-297.379 254.068-166.583 0-297.778-114.097-297.778-254.068 0-140.213 131.195-254.061 297.778-254.061 34.861 0 70.031 8.8 105.048 17.577l96.036-52.599-26.337 87.493c70.278 52.721 122.632 122.632 122.632 201.59zM604.673 332.254c-21.288 0-38.544 17.259-38.544 38.546 0 21.289 17.257 38.544 38.544 38.544s38.544-17.256 38.544-38.544c0.002-21.288-17.257-38.546-38.544-38.546zM797.139 330.068c-21.29 0-38.545 17.258-38.545 38.544 0 21.29 17.256 38.544 38.545 38.544 21.287 0 38.544-17.255 38.544-38.544 0.001-21.286-17.257-38.544-38.544-38.544z"  horiz-adv-x="1000" />

    
    <glyph glyph-name="more" unicode="&#58904;" d="M453.968 679.264c-12.848 12.128-33.088 11.552-45.232-1.296-12.128-12.848-11.552-33.104 1.296-45.232L673.392 384l-263.36-248.736c-12.848-12.128-13.424-32.384-1.296-45.232C415.024 83.36 423.504 80 432 80c7.888 0 15.776 2.896 21.968 8.736l288 272C748.368 366.784 752 375.2 752 384s-3.632 17.216-10.032 23.264L453.968 679.264zM512 896C375.248 896 246.672 842.736 149.984 746.032 53.264 649.328 0 520.752 0 384s53.28-265.328 149.984-362.016C246.672-74.736 375.248-128 512-128s265.328 53.264 362.016 149.968C970.736 118.672 1024 247.248 1024 384s-53.28 265.328-149.984 362.016C777.328 842.736 648.752 896 512 896zM828.752 67.232C744.144-17.392 631.664-64 512-64s-232.144 46.608-316.768 131.232C110.608 151.84 64 264.336 64 384s46.608 232.16 131.248 316.768C279.856 785.392 392.336 832 512 832s232.144-46.608 316.768-131.232C913.392 616.16 960 503.664 960 384S913.392 151.84 828.752 67.232z"  horiz-adv-x="1024" />

    
    <glyph glyph-name="home-i" unicode="&#58882;" d="M1014.569 407.447c-8.729-13.329-25.563-16.348-37.638-6.662l-452.516 378.349c-0.221 0.126-0.41 0.235-0.596 0.359-3.878 3.082-8.511 4.74-13.329 4.74s-9.478-1.658-13.39-4.74c-0.064-0.063-0.189-0.126-0.284-0.157l-452.798-378.551c-12.016-9.683-28.847-6.666-37.609 6.662-8.698 13.329-6.07 31.977 5.975 41.739l453.173 378.74c0.221 0.095 0.438 0.298 0.595 0.47 13.045 10.217 28.347 15.614 44.334 15.614 15.331 0 30.068-5.069 42.708-14.501 0.751-0.454 1.502-0.987 2.221-1.583l171.458-144.206 0 18.302c0 22.432 16.332 40.643 36.512 40.643l69.708 0c20.182 0 36.576-18.21 36.576-40.643l0-132.723 138.919-120.114c12.077-9.762 14.675-28.41 5.975-41.739zM474.195 653.589c0.124 0.124 0.22 0.155 0.313 0.311 10.575 8.291 23.026 12.75 35.98 12.75 13.018-0.063 25.469-4.49 36.076-12.907 0 0 0.157-0.093 0.22-0.155l314.036-266.386c6.946-5.71 11.077-14.705 11.077-24.185l0-337.3c0-57.68-42.208-104.566-94.146-104.566l-163.072 0 0 251.447c0 44.364-32.353 80.22-72.213 80.22l-74.903 0c-39.861 0-72.18-35.857-72.18-80.22l0-251.447-152.185 0c-51.876 0-94.176 46.886-94.176 104.566l0 337.3c0 9.479 4.097 18.476 11.138 24.185l314.037 266.386z"  horiz-adv-x="1024" />

    
    <glyph glyph-name="count" unicode="&#58930;" d="M-14.675968 47.195136M742.685696 831.761408l262.608896 0 0-893.833216-262.608896 0 0 893.833216ZM382.52544 384.851968l262.616064 0 0-446.923776-262.616064 0 0 446.923776ZM21.89824 569.143296l262.608896 0 0-631.216128-262.608896 0 0 631.216128ZM1041.408 47.195136"  horiz-adv-x="1031" />

    
    <glyph glyph-name="aid" unicode="&#58889;" d="M896 640l-192 0 0 128c0 35.2-28.8 64-64 64l-256 0c-35.2 0-64-28.8-64-64l0-128-192 0c-70.4 0-128-57.6-128-128l0-512c0-70.4 57.6-128 128-128l768 0c70.4 0 128 57.6 128 128l0 512c0 70.4-57.6 128-128 128zM384 768l256 0 0-128-256 0 0 128zM768 192l-192 0 0-192-128 0 0 192-192 0 0 128 192 0 0 192 128 0 0-192 192 0 0-128z"  horiz-adv-x="1024" />

    
    <glyph glyph-name="law" unicode="&#58890;" d="M133.76 661.888c0 0 55.232-70.08 67.648-115.392 0 0 323.904 125.312 653.376 0l73.152 112.96c0 0-163.2 103.552-220.16 153.792 0 0-179.968 189.888-361.728-13.632C300.992 749.248 149.952 665.6 133.76 661.888zM859.328 466.048c0-31.296-160.64-76.544-334.272-76.544S200.768 434.752 200.768 466.048s150.656 66.624 324.288 66.624S859.328 497.344 859.328 466.048zM266.56 368.384c0 0 253.76-79.424 535.488 0 0 0 24.256-161.92-103.616-169.856 0 0-67.008-6.272-133.376 99.136l-39.04 0.512c0 0-52.736-113.344-142.08-99.776C383.872 198.4 270.912 201.536 266.56 368.384zM214.848 395.328c0 0-53.76-132.416 55.424-169.472 0 0 53.312-262.08 277.312-281.728 0 0 202.88 0 264.96 285.376 0 0 131.584 33.408 46.72 165.824l52.48 43.84c0 0 108.032-171.2-39.68-265.472 0 0-39.68-260.672-324.48-301.696-80 16.192-242.688 22.4-336.896 307.776 0 0-140.224 94.4-37.312 259.392L214.848 395.328zM540.8 655.936c0 0 115.84 37.312 63.68 86.912 0 0-20.224 23.936 8.256 40.064L611.968 802.304 561.472 802.304 540.8 827.136 525.888 803.136 471.296 803.968l0-19.84c0 0 34.688-24.768 10.752-38.976C482.048 745.216 435.712 689.792 540.8 655.936z"  horiz-adv-x="1024" />

    
    <glyph glyph-name="work" unicode="&#58884;" d="M224.064 150.848l274.176 0 0-54.72L224.064 96.128 224.064 150.848 224.064 150.848zM224.064 342.848l274.176 0L498.24 288 224.064 288 224.064 342.848 224.064 342.848zM224.064 507.456l274.176 0 0-54.848L224.064 452.608 224.064 507.456 224.064 507.456zM224.064 699.392l274.176 0 0-54.848L224.064 644.544 224.064 699.392 224.064 699.392zM937.024 891.392 86.912 891.392c-45.376 0-82.304-36.928-82.304-82.304l0-850.112c0-45.376 36.928-82.368 82.304-82.368l850.048 0c45.376 0 82.304 36.992 82.304 82.368L1019.264 809.088C1019.328 854.464 982.4 891.392 937.024 891.392L937.024 891.392zM964.48-41.024c0-15.104-12.288-27.52-27.52-27.52L86.912-68.544c-15.104 0-27.392 12.352-27.392 27.52L59.52 809.088c0 15.104 12.288 27.456 27.392 27.456l850.048 0c15.168 0 27.52-12.288 27.52-27.456L964.48-41.024 964.48-41.024zM800 233.28C799.872 231.232 800.896 235.264 800 233.28L800 233.28 800 233.28zM635.392 233.28C634.432 235.392 635.328 230.656 635.392 233.28L635.392 233.28 635.392 233.28zM800 617.152c0.256 25.024-16.896 41.6-27.52 54.848-10.368 13.056-36.8 22.016-56.256 21.696-17.152-0.256-42.752-9.024-53.44-21.696-16.576-19.968-27.2-46.848-27.456-54.848-0.32-11.2 0-383.872 0-383.872 8.896-20.48 71.744-125.76 72.064-126.656 1.92-4.736 5.824-7.744 10.112-7.744 3.072-0.128 6.016 1.344 8.192 4.032 0.896 1.152 1.536 2.24 2.24 3.648 0.384 1.024 64.704 110.976 72 126.72C800.32 249.472 800.832 591.872 800 617.152L800 617.152zM745.152 233.28c-6.656-14.656-15.808-55.872-27.456-82.368-11.328 28.096-20.8 66.496-27.456 82.368 1.152 41.344-0.256 373.504 0 383.872-0.192 9.152 0 3.84 0 27.456 11.136 0 17.408-0.128 27.456 0 11.968 0.192 20.544 0 27.456 0 0.128-11.84 0.128-11.84 0-27.456C744.896 603.52 745.28 425.984 745.152 233.28L745.152 233.28zM745.152 233.28"  horiz-adv-x="1024" />

    
    <glyph glyph-name="local" unicode="&#58891;" d="M876.46 529.283c0 201.081-163.008 364.089-364.089 364.089s-364.089-163.008-364.089-364.089c0-73.452 21.772-141.809 59.183-199.012l-0.646 0 272.948-436.225c5.963-11.975 18.319-20.206 32.605-20.206s26.642 8.23 32.605 20.206l0.01 0 272.938 436.225-0.647 0c37.412 57.201 59.184 125.558 59.184 199.012zM512.37 695.308c91.694 0 166.025-74.332 166.025-166.025s-74.331-166.025-166.025-166.025c-91.693 0-166.023 74.331-166.023 166.025s74.331 166.025 166.023 166.025z"  horiz-adv-x="1024" />

    
    <glyph glyph-name="time" unicode="&#58938;" d="M512 861.867c-263.919 0-477.867-213.948-477.867-477.867s213.948-477.867 477.867-477.867c263.919 0 477.867 213.948 477.867 477.867 0 263.919-213.948 477.867-477.867 477.867zM512-35.089c-230.537 0-418.133 188.553-418.133 419.089s187.597 418.133 418.133 418.133c230.537 0 418.133-187.597 418.133-418.133 0-230.537-187.597-419.089-418.133-419.089zM541.901 396.151v286.515c0 16.521-13.38 29.901-29.901 29.901s-29.901-13.38-29.901-29.901v-298.667c0-8.602 3.755-16.247 9.626-21.709 0.41-0.478 0.614-1.092 1.024-1.502l147.866-147.866c11.674-11.674 30.583-11.674 42.189 0 11.742 11.605 11.742 30.515 0 42.257l-140.902 140.971z"  horiz-adv-x="1024" />

    
    <glyph glyph-name="ios" unicode="&#58939;" d="M885.177 179.843c-1.17-3.542-19.432-67.178-64.309-132.613-38.841-56.445-79.005-113.347-142.436-114.345-62.379-1.096-82.342 37.177-153.563 37.177-71.13 0-93.492-36.179-152.445-38.274-60.945-2.491-107.84 61.657-146.827 117.829-79.68 115.064-141.033 326.063-58.749 467.467 40.483 70.749 113.251 115.722 192.492 116.952 59.714 1.127 116.53-40.407 152.798-40.407 37.261 0 105.991 50.258 178.498 42.737 30.359-1.291 115.275-12.676 169.986-91.884-4.305-2.926-101.604-60.281-100.521-177.014 1.462-140.923 123.76-187.143 125.076-187.624M643.188 711.851c32.697 39.838 54.182 94.603 48.53 148.989-46.685-1.83-103.564-30.968-137.369-70.572-29.889-34.552-56.234-90.169-48.886-143.923 51.87-3.148 105.206 27.132 137.725 65.506z"  horiz-adv-x="1024" />

    
    <glyph glyph-name="qq" unicode="&#58941;" d="M199.605 428.46l-1.678 5.17-1.343 6.78-0.94 3.727v15.275l1.612 5.976 1.679 6.378 2.148 6.614 2.922 7.419 3.86 7.722 5.439 7.721v5.406l0.536 5.069 0.806 6.882 2.35 7.687 2.149 8.359 1.712 3.862 1.98 3.557 2.552 3.996 2.753 2.921v19.135l1.612 9.803 1.611 11.415 2.888 13.696 3.961 14.169 2.954 7.855 2.921 8.494 3.19 7.955 3.827 8.493 3.894 9.3 4.5 8.728 5.036 9.334 6.379 9.266 2.921 5.303 3.156 4.399 6.815 9.836 6.982 9.802 7.99 10.072 8.528 9.87 9.266 9.668 9.669 9.937 11.684 10.743 7.454 6.512 9.030 7.051 9.166 6.244 9.937 5.975 9.536 5.305 10.743 4.364 11.414 5.438 11.347 3.727 11.348 3.861 12.221 3.827 12.221 2.921 12.892 2.384 13.025 2.148 25.717 3.458 13.699 0.773h40.488l13.498-1.712 13.561-1.613 13.832-1.443 12.826-3.088 13.562-2.887 12.725-3.291 13.933-3.76 12.758-4.498 12.219-5.17 13.028-5.439 11.917-5.975 11.55-6.647 11.313-7.319 9.803-6.748 4.5-3.861 4.769-2.753 9.063-7.722 7.657-7.453 7.586-7.688 7.454-8.492 6.109-8.225 7.251-8.494 5.103-9.131 5.136-8.125 5.473-9.432 4.499-8.226 7.655-17.389 3.759-8.998 2.923-8.393 2.92-8.996 2.62-8.528 1.88-7.284 2.35-8.629 4.164-15.376 2.653-13.428 1.71-13.026 1.479-10.475 2.351-15.913 0.536-2.551 1.879-2.887 5.038-8.258 3.221-5.54 2.888-5.874 3.693-6.211 3.223-7.454 2.080-7.687 2.283-8.359 1.746-8.627 0.806-4.229 0.671-5.171v-4.531l-0.671-4.532v-5.574l-1.344-5.438-2.415-10.476-2.755-5.304-2.013-5.975v-1.477l0.939-1.848 2.752-4.396 11.954-17.659 9.466-13.227 4.5-8.93 6.11-9.667 5.303-10.61 6.112-11.413 6.109-12.759 6.883-14.469 3.859-8.898 3.559-8.594 3.091-9.2 3.022-8.19 2.282-8.662 2.349-8.091 2.954-15.811 2.351-16.182 1.611-14.301v-20.21l-1.075-7.185-1.543-12.322-2.148-11.144-3.291-10.072-1.208-4.129-2.282-4.902-1.949-3.459-2.551-4.262-2.284-2.653-2.887-3.458-2.551-2.752-2.751-2.417-3.292-1.445-2.955-1.443-2.415-0.805h-3.694l-2.382 0.805-4.533 2.216-2.079 1.478-2.149 1.611-2.385 2.115-2.382 2.382-3.961 4.365-4.701 6.244-3.693 6.378-3.692 5.17-3.592 5.976-5.071 10.608-5.706 11.046-0.671 0.37h-0.94l-2.351-1.712-1.343-2.921-2.215-3.56-3.895-10.775-5.842-15.276-7.521-18.296-5.639-9.165-5.944-9.534-7.018-10.744-7.453-10.541-3.826-4.768-4.633-5.171-10.644-10.474 0.941-0.939 1.442-1.478 5.305-3.156 22.16-10.609 9.67-5.439 9.198-5.304 9.131-6.647 8.124-6.916 3.962-3.055 2.955-3.593 3.019-4.095 2.552-4.532 1.345-3.726 1.677-4.498 0.673-3.828 0.803-4.531-0.803-3.057v-3.020l-0.673-3.223-1.677-2.888-0.673-2.282-1.478-2.753-4.029-5.473-3.691-4.398-2.887-3.289-2.418-2.417-6.109-4.498-6.917-3.861-7.384-3.727-7.857-3.558-8.863-3.425-4.699-1.476-4.232-1.21-10.207-2.383-10.609-2.249-10.608-2.284-11.548-1.847-11.952-0.502-12.222-1.477h-37.938l-13.696 0.805-12.759 1.174-13.696 1.847-13.63 1.478-14.369 2.014-13.9 3.425-13.562 2.685-13.498 3.827-13.832 4.902-13.561 4.129-7.119 2.384-6.379 2.283-4.028 1.544-3.962 0.805h-11.28l-13.024 0.939-6.615 0.672-8.494 0.938-5.439-4.9-7.454-4.667-10.071-4.934-11.146-6.111-6.782-3.288-7.051-2.653-15.645-6.379-8.494-2.114-8.896-2.417-12.355-2.351-7.722-0.67-8.192-0.671-8.528-0.941-9.937-0.402h-40.59l-22.93 0.402-22.225 2.283-11.28 1.545-10.878 1.611-10.608 1.612-10.609 2.114-9.837 3.191-9.836 2.249-8.863 3.593-8.394 3.288-7.789 3.761-6.781 4.095-6.783 4.903-2.282 2.416-3.022 2.888-2.283 2.55-2.081 2.888-1.881 2.954-1.477 2.888-2.115 6.244-0.772 3.19-0.94 3.592v3.291l0.94 3.725v3.727l0.772 3.726v7.418l0.369 3.998 1.746 4.531 1.477 4.498 2.687 5.438 1.946 2.116 1.612 2.382 4.229 5.171 3.358 2.686 3.156 1.846 2.922 2.382 4.665 1.478 3.693 2.218 4.633 2.416 5.305 1.579 5.304 1.611 6.11 1.311 5.841 0.805 6.917 0.938 7.453 0.538 1.98 0.67h0.402l0.941 0.805v0.873l-1.344 1.881-3.995 1.88-9.937 8.594-6.648 5.305-7.722 6.781-7.789 7.554-8.124 9.701-9.265 10.878-3.492 5.842-4.634 6.11-3.961 7.049-3.558 7.687-4.835 7.286-3.156 8.394-3.727 8.325-3.726 9.333-2.753 8.863-2.551 11.012-0.805 0.403h-0.773l-0.403 0.806h-0.94l-1.578-0.806-0.805-0.403-1.073-1.847-0.403-2.249-0.805-2.015-1.41-3.289-4.566-8.124-2.351-4.903-3.726-4.229-3.995-5.17-4.366-5.706-4.633-5.072-5.439-4.901-5.069-4.633-5.539-3.593-6.11-3.86-5.841-2.25-6.916-1.746-6.782-0.636h-1.612l-1.544 0.636-1.21 2.686-2.014 1.31-2.619 6.377-1.611 3.459-1.746 4.902-1.444 5.17-0.773 5.037-2.149 11.547-0.805 6.783v22.29l0.805 16.584 1.344 8.528 1.578 8.728 1.444 9.434 2.551 8.763 2.887 10.104 2.954 9.804 3.962 10.104 3.726 9.669 5.136 9.835 4.835 10.61 5.841 9.97 6.882 10.743 7.017 9.67 7.319 10.742 6.11 7.453 7.822 8.629 8.226 8.627 3.827 4.095 4.665 4.667 6.748 5.874 6.917 5.942 11.28 10.105 8.528 6.211z"  horiz-adv-x="1024" />

    
    <glyph glyph-name="help-info" unicode="&#58908;" d="M216.26195 683.756061c63.608713 63.612807 145.631822 104.872512 236.255819 117.887944 110.771873 15.901155 221.156936-12.319583 310.74023-79.425957 89.603761-67.12684 147.716296-165.124781 163.628708-275.925307 32.853245-228.801033-126.581953-441.596534-355.259166-474.474338-95.890954-13.758352-194.216353 6.335289-276.879028 56.525388-14.134929 8.593725-18.62315 27.013237-10.048867 41.131793 8.654101 14.030551 26.985608 18.647709 41.123606 10.057053 70.808696-43.043329 155.080008-60.251246 237.299591-48.435129 195.971323 28.109198 332.626703 210.549344 304.498062 406.683373-13.634532 94.968955-63.444984 178.948625-140.260487 236.468666-76.79606 57.537438-171.395602 81.693604-266.335904 68.038606-196.179055-28.113291-332.777129-210.573903-304.601416-406.668023 7.384178-51.337225 25.208125-99.308797 53.049217-142.555763 8.9263-13.930267 4.864798-32.517601-8.959046-41.383526-13.906731-8.953929-32.44597-4.932336-41.379433 8.953929-32.494065 50.568722-53.324486 106.539478-61.98268 166.475546-15.897062 110.781082 12.301164 221.201961 79.466889 310.812885C188.832228 654.287913 202.07995 669.568944 216.26195 683.756061L216.26195 683.756061 216.26195 683.756061zM515.250532 106.343259c-24.78243 0-44.900629 20.1182-44.900629 44.905746s20.1182 44.905746 44.900629 44.905746c24.791639 0 44.909839-20.1182 44.909839-44.905746S540.041148 106.343259 515.250532 106.343259L515.250532 106.343259 515.250532 106.343259zM598.117868 412.435633c-26.046213-26.022677-52.928466-52.908-52.928466-77.064166l0-50.630121c0-16.521279-13.410428-29.9358-29.9358-29.9358-16.523325 0-29.934776 13.414521-29.934776 29.9358l0 50.630121c0 48.978505 37.421284 86.401836 70.466911 119.42188 24.219611 24.219611 49.27424 49.250704 49.27424 69.218478 0 49.910737-40.292682 90.503247-89.807399 90.503247-50.353828 0-89.806375-38.858006-89.806375-88.469937 0-16.523325-13.411451-29.9358-29.9358-29.9358-16.528442 0-29.939893 13.411451-29.939893 29.9358 0 81.793888 67.150376 148.3487 149.677974 148.3487 82.539878 0 149.682068-67.454298 149.682068-150.382009C664.9326 479.225805 630.955764 445.273529 598.117868 412.435633L598.117868 412.435633 598.117868 412.435633zM216.26195 683.756061c63.608713 63.612807 145.631822 104.872512 236.255819 117.887944 110.771873 15.901155 221.156936-12.319583 310.74023-79.425957 89.603761-67.12684 147.716296-165.124781 163.628708-275.925307 32.853245-228.801033-126.581953-441.596534-355.259166-474.474338-95.890954-13.758352-194.216353 6.335289-276.879028 56.525388-14.134929 8.593725-18.62315 27.013237-10.048867 41.131793 8.654101 14.030551 26.985608 18.647709 41.123606 10.057053 70.808696-43.043329 155.080008-60.251246 237.299591-48.435129 195.971323 28.109198 332.626703 210.549344 304.498062 406.683373-13.634532 94.968955-63.444984 178.948625-140.260487 236.468666-76.79606 57.537438-171.395602 81.693604-266.335904 68.038606-196.179055-28.113291-332.777129-210.573903-304.601416-406.668023 7.384178-51.337225 25.208125-99.308797 53.049217-142.555763 8.9263-13.930267 4.864798-32.517601-8.959046-41.383526-13.906731-8.953929-32.44597-4.932336-41.379433 8.953929-32.494065 50.568722-53.324486 106.539478-61.98268 166.475546-15.897062 110.781082 12.301164 221.201961 79.466889 310.812885C188.832228 654.287913 202.07995 669.568944 216.26195 683.756061L216.26195 683.756061 216.26195 683.756061z"  horiz-adv-x="1024" />

    
    <glyph glyph-name="weibo" unicode="&#58895;" d="M742.793922 394.31902c-37.302581 7.258311-19.153222 27.39493-19.153222 27.39493s36.499285 60.337203-7.225565 104.204293c-54.219879 54.329373-185.940876-6.912433-185.940876-6.912433-50.319036-15.652492-36.95875 7.142677-29.847795 45.936215 0 45.705971-15.626909 123.060757-149.640112 77.370135C217.115388 596.374922 102.139773 435.426253 102.139773 435.426253 22.20114 328.475406 32.809755 245.816824 32.809755 245.816824 52.765249 63.337793 246.159888 13.245931 396.574642 1.389906c158.243047-12.447497 371.851053 54.689576 436.59359 192.612832C897.938398 332.155215 780.239765 386.831488 742.793922 394.31902zM408.302755 52.844811c-157.124574-7.358595-284.114826 71.620178-284.114826 176.73112 0 105.223506 126.990253 189.609429 284.114826 196.86774 157.182902 7.258311 284.428981-57.679677 284.428981-162.687266C692.731736 158.659789 565.484633 60.002838 408.302755 52.844811zM376.934327 357.136166c-157.983127-18.541285-139.747811-166.926824-139.747811-166.926824s-1.605567-46.986127 42.37818-70.918189c92.439342-50.205449 187.631378-19.805068 235.743142 42.459021C563.419602 224.043938 535.206026 375.548514 376.934327 357.136166zM337.080643 148.870842c-29.475312-3.464915-53.273321 13.582343-53.273321 38.33305 0 24.636097 21.131273 50.434669 50.635237 53.526077 33.889855 3.232624 55.968709-16.343223 55.968709-41.092907C390.411269 175.000965 366.49865 152.220123 337.080643 148.870842zM430.2363 228.425735c-10.005888-7.487531-22.278399-6.452969-27.554566 2.53166-5.504364 8.751315-3.440355 22.795169 6.652514 30.167067 11.697413 8.741082 23.882943 6.222725 29.15911-2.542916C443.798177 249.612267 440.013991 236.144534 430.2363 228.425735zM819.751664 458.567299c12.728906 0 23.566742 9.44307 25.3739 21.760606 0.230244 0.919952 0.344854 1.724271 0.344854 2.759857 19.296485 173.956937-142.187373 144.017044-142.187373 144.017044-14.335497 0-25.805736-11.627828-25.805736-26.130124 0-14.273075 11.470239-25.900903 25.805736-25.900903 116.009154 25.670659 90.406033-90.607624 90.406033-90.607624C793.688055 470.079494 805.356816 458.567299 819.751664 458.567299zM800.94125 762.196575c-55.855122 13.108552-113.255437 1.811252-129.340787-1.279133-1.233084-0.115634-2.409886-1.294482-3.555989-1.523703-0.545422-0.115634-0.889253-0.689708-0.889253-0.689708-15.885805-4.499477-27.469632-19.216667-27.469632-36.608779 0-20.726044 16.745383-37.772278 37.676088-37.772278 0 0 20.300348 2.730181 34.090423 8.135284 13.676487 5.519714 129.283482 4.110621 186.743148-92.590791 31.311123-70.571289 13.762445-117.800963 11.583826-125.389802 0 0-7.454786-18.340717-7.454786-36.391838 0-20.842701 16.744359-33.935903 37.502126-33.935903 17.375739 0 31.94148 2.373047 36.213783 31.807427l0.230244 0C1037.947152 642.009262 900.834354 738.827331 800.94125 762.196575z"  horiz-adv-x="1024" />

    
    <glyph glyph-name="android" unicode="&#58940;" d="M839.562 455.28c-30.082 0-54.476-24.771-54.476-55.326v-216.209c0-30.558 24.393-55.328 54.476-55.328 30.087 0 54.476 24.771 54.476 55.328v216.209c0.001 30.555-24.387 55.326-54.476 55.326zM182.482 455.28c-30.085 0-54.476-24.771-54.476-55.326v-216.209c0-30.558 24.391-55.328 54.476-55.328s54.476 24.771 54.476 55.328v216.209c0 30.555-24.391 55.326-54.476 55.326zM269.74 453.605v-395.014c0-23.462 19.020-42.481 42.483-42.481h48.533v-120.293c0-30.558 24.391-55.328 54.476-55.328 30.087 0 54.478 24.771 54.478 55.328v120.294h84.786v-120.293c0-30.558 24.393-55.328 54.476-55.328 30.087 0 54.481 24.771 54.481 55.328v120.293h48.528c23.467 0 42.485 19.018 42.485 42.481v395.013h-484.725zM625.92 658.294l44.777 64.999c2.657 3.861 1.997 8.932-1.478 11.326-3.475 2.392-8.447 1.204-11.104-2.659l-46.512-67.518c-30.65 12.075-64.707 18.805-100.581 18.805s-69.929-6.729-100.579-18.805l-46.512 67.518c-2.659 3.863-7.631 5.050-11.106 2.659-3.475-2.395-4.134-7.466-1.476-11.326l44.777-64.999c-71.188-33.117-121.113-96.042-127.467-169.487h484.727c-6.355 73.445-56.28 136.37-127.466 169.487zM408.772 555.856c-14.811 0-26.819 12.005-26.819 26.819 0 14.811 12.007 26.819 26.819 26.819 14.813 0 26.819-12.007 26.819-26.819 0-14.813-12.005-26.819-26.819-26.819zM616.625 555.856c-14.811 0-26.816 12.005-26.816 26.819 0 14.811 12.004 26.819 26.816 26.819 14.816 0 26.821-12.007 26.821-26.819 0-14.813-12.004-26.819-26.821-26.819z"  horiz-adv-x="1024" />

    
    <glyph glyph-name="download" unicode="&#58892;" d="M838.89 486.358l0-31.5c73.88-27.345 123.379-98.1 123.379-176.755 0-101.8-79.791-184.479-181.635-188.224l-10.834-0.398L251.4 89.481l-8.034 0.398c-101.843 3.744-181.634 86.424-181.634 188.224 0 104.01 84.626 188.636 188.636 188.636 8.078 0 16.701-0.723 27.152-2.241l33.786-4.923 0.029 0.266-0.029 0.044c0 1.105 0.412 22.907 0.412 22.907 0 107.68 87.604 195.284 195.284 195.284s195.284-87.604 195.284-195.284l0-229.247 0.266 0 0-11.276L600.754 344.067l-21.345-21.345L696.053 206.08l21.344-21.359 21.345 21.359 116.657 116.628-21.359 21.359-101.769-101.77 0 11.247 0.206 0L732.477 482.792c0 124.528-100.944 225.473-225.474 225.473-120.785 0-219.104-95.048-224.913-214.388l-0.31 0.044c-11.792 1.739-21.771 2.55-31.412 2.55C129.952 496.471 32 398.52 32 278.104c0-117.882 92.365-213.607 210.305-217.941l2.314-0.427 534.202 0 0 0.31 2.903 0.117C899.636 64.496 992 160.222 992 278.104 992 372.93 929.234 457.983 838.89 486.358z"  horiz-adv-x="1024" />

    
    <glyph glyph-name="arrow-top" unicode="&#58913;" d="M510.851339 545.729451 922.310481 134.270309 1013.744937 134.270309 510.851339 637.163907 7.957741 134.270309 99.392196 134.270309Z"  horiz-adv-x="1024" />

    
    <glyph glyph-name="user-search" unicode="&#58893;" d="M498.848 69.961q4.079-19.373 13.255-41.806t26.51-45.374 44.863-45.374 68.315-41.806q-27.53-7.138-63.215-11.216-30.588-4.079-74.941-7.138t-102.47-3.059q-29.57 0-67.805 2.038t-79.53 6.116-81.569 9.178-73.921 10.195-56.588 10.706-29.059 10.706q-10.195 8.157-15.804 49.961t4.589 107.06q6.116 37.727 30.588 57.099t56.588 31.099 67.294 21.412 62.706 27.02q21.412 13.255 32.627 25.491t15.804 24.471 4.589 25.491-1.02 28.549q-2.038 24.471-15.804 37.727t-31.099 27.53q-8.157 7.138-14.274 19.882t-11.216 25.999q-5.099 15.295-10.195 31.609-7.138 2.038-14.274 7.138-6.116 5.099-12.746 14.274t-11.725 26.51-3.568 31.099 5.609 24.98q4.079 12.236 12.236 22.431 0 38.745 4.079 77.49 4.079 32.627 14.274 69.842t31.609 66.784q19.373 27.53 42.823 45.374t47.922 28.039 49.452 14.274 47.411 4.079q29.57 0 56.588-7.138t49.961-18.352 41.295-25.491 29.57-28.549q25.491-32.627 38.235-71.883t17.844-73.921q5.099-40.784 4.079-81.569 7.138-5.099 11.216-13.255 4.079-7.138 6.627-18.352t0.511-27.53q-2.038-22.431-8.667-35.177t-14.784-19.882q-9.178-8.157-19.373-11.216-5.099-16.315-10.195-31.609-5.099-13.255-11.216-25.999t-14.274-19.882q-9.178-8.157-14.274-15.804t-8.157-15.804-6.627-17.844-10.706-20.902q-23.451-36.706-36.706-69.334t-18.352-62.706-3.059-58.117 8.157-55.569zM1020.889-66.667q14.274-17.334 15.804-29.57t-9.686-23.451q-6.116-7.138-15.804-7.647t-20.393 3.568-20.393 10.195-16.823 12.236l-71.372 65.255q-28.549-17.334-60.667-24.98t-64.237-5.609-62.706 15.804-55.059 39.254q-28.549 28.549-42.823 64.745t-14.274 73.921 14.274 73.921 42.823 64.745q27.529 28.549 63.215 42.823t72.394 14.274 72.394-14.274 64.237-42.823q24.471-25.491 38.235-57.099t16.315-64.237-5.099-65.255-24.98-60.158l38.745-38.745q15.295-15.295 28.549-29.059t17.334-17.844zM777.201-3.451q26.51 0 49.961 10.195t40.784 28.039 27.53 41.806 10.195 51.49-10.195 50.98-27.53 41.295-40.784 28.039-49.961 10.195-49.961-10.195-40.784-28.039-27.529-41.295-10.195-50.98 10.195-51.49 27.529-41.806 40.784-28.039 49.961-10.195z"  horiz-adv-x="1035" />

    
    <glyph glyph-name="agency" unicode="&#58906;" d="M512.3 761.259c98.007 0 177.467-74.66 177.467-166.768 0-27.645-7.202-53.703-19.883-76.672l143.632-104.741c17.78 11.758 39.435 18.688 62.828 18.688 60.374 0 109.342-45.999 109.342-102.759 0-56.745-48.966-102.743-109.342-102.743-60.39 0-109.358 45.999-109.358 102.743 0 12.802 2.513 25.044 7.067 36.346l-143.616 104.726c-23.773-19.943-53.323-33.941-85.979-39.553l0-160.033c63.856-13.724 111.491-67.397 111.491-131.555 0-74.541-64.326-134.991-143.646-134.991-79.337 0-143.646 60.451-143.646 134.991 0 64.158 47.635 117.83 111.491 131.555l0 160.033c-32.67 5.614-62.208 19.612-85.979 39.553l-143.616-104.725c4.539-11.302 7.052-23.545 7.052-36.346 0-56.745-48.951-102.743-109.342-102.743-60.374 0-109.343 45.999-109.343 102.743 0 56.759 48.966 102.759 109.343 102.759 23.395 0 45.049-6.93 62.828-18.688l143.616 104.741c-12.666 22.969-19.868 49.026-19.868 76.672-0.002 92.107 79.457 166.768 177.467 166.768l0 0z"  horiz-adv-x="1024" />

    
    <glyph glyph-name="guide" unicode="&#58885;" d="M508.644174 513.825391c-24.687304-4.986435-48.239304-16.951652-67.383652-36.096-13.81287-13.824-23.663304-30.007652-30.107826-47.181913-62.886957-106.373565-161.613913-331.998609-161.613913-331.998609s225.636174 98.726957 331.998609 161.613913c17.174261 6.444522 33.357913 16.283826 47.181913 30.107826 16.306087 16.306087 26.857739 35.929043 32.901565 56.598261 62.96487 109.634783 156.17113 322.582261 156.17113 322.582261s-227.528348-99.561739-333.334261-162.404174C492.304696 510.185739 500.429913 512.24487 508.644174 513.825391zM296.164174 145.174261c33.536 74.295652 73.894957 159.49913 107.720348 223.588174 3.305739-28.672 15.37113-56.509217 37.36487-78.502957 21.993739-21.993739 49.830957-34.05913 78.502957-37.36487C455.663304 219.069217 370.470957 178.710261 296.164174 145.174261zM611.990261 461.000348c20.290783-20.290783 31.47687-47.193043 31.777391-75.842783-0.166957-27.191652-10.540522-54.338783-31.24313-75.041391-7.101217-7.101217-21.437217-16.840348-40.537043-28.204522-11.742609-4.251826-24.141913-6.811826-36.997565-6.811826-29.083826 0-56.431304 11.330783-77.000348 31.899826-20.569043 20.569043-31.888696 47.916522-31.888696 77.000348 0 12.855652 2.56 25.254957 6.811826 36.997565 11.364174 19.099826 21.103304 33.435826 28.204522 40.537043 20.001391 20.001391 46.536348 31.031652 74.796522 31.265391C564.641391 492.566261 591.643826 481.346783 611.990261 461.000348zM512.005565 873.004522C242.359652 873.004522 23.001043 653.634783 23.001043 384c0-269.634783 219.358609-489.004522 489.004522-489.004522 269.634783 0 488.993391 219.38087 488.993391 489.004522C1001.010087 653.634783 781.640348 873.004522 512.005565 873.004522zM523.837217-57.088l0 45.089391c0 6.533565-5.286957 11.831652-11.831652 11.831652-6.544696 0-11.831652-5.298087-11.831652-11.831652l0-45.089391C266.10087-50.843826 77.161739 138.095304 70.917565 372.168348l45.06713 0c6.533565 0 11.831652 5.286957 11.831652 11.831652 0 6.544696-5.298087 11.831652-11.831652 11.831652L70.917565 395.831652C77.161739 629.915826 266.10087 818.843826 500.173913 825.088l0-45.089391c0-6.533565 5.286957-11.831652 11.831652-11.831652 6.544696 0 11.831652 5.298087 11.831652 11.831652L523.837217 825.088c234.073043-6.244174 423.001043-195.172174 429.245217-429.256348l-45.06713 0c-6.533565 0-11.831652-5.286957-11.831652-11.831652 0-6.544696 5.298087-11.831652 11.831652-11.831652l45.06713 0C946.838261 138.095304 757.910261-50.843826 523.837217-57.088z"  horiz-adv-x="1024" />

    
    <glyph glyph-name="link" unicode="&#58894;" d="M260.565333-86.328889c-40.874667 0-82.133333 12.017778-118.186667 37.034667l-7.594667 5.276444c-94.065778 65.322667-117.461333 195.015111-52.138667 289.080889l198.129778 264.362667c31.047111 44.743111 78.535111 75.264 133.134222 85.105778 54.599111 9.870222 109.752889-2.161778 155.320889-33.806222l7.594667-5.262222c38.684444-26.851556 67.342222-66.503111 80.711111-111.644444 4.451556-15.061333-4.138667-30.890667-19.214222-35.342222-15.047111-4.423111-30.876444 4.124444-35.342222 19.214222-9.827556 33.237333-30.094222 61.269333-58.581333 81.038222l-7.594667 5.262222c-33.109333 22.997333-73.187556 31.729778-112.796444 24.561778-39.637333-7.153778-74.126222-29.312-97.109333-62.407111L128.782222 211.797333c-46.833778-67.470222-29.852444-161.635556 38.456889-209.080889l7.594667-5.276444c68.280889-47.416889 162.460444-30.464 209.905778 37.831111l60.529778 87.125333c8.974222 12.871111 26.666667 16.056889 39.594667 7.125333 12.885333-8.974222 16.085333-26.695111 7.125333-39.594667l-60.529778-87.111111C391.168-55.210667 326.371556-86.328889 260.565333-86.328889zM573.112889 170.055111c-40.917333 0-82.261333 12.003556-118.371556 37.063111l-7.651556 5.333333c-38.656 26.851556-67.285333 66.474667-80.625778 111.573333-4.451556 15.075556 4.152889 30.890667 19.214222 35.342222 15.118222 4.451556 30.904889-4.138667 35.342222-19.214222 9.813333-33.208889 30.065778-61.226667 58.552889-81.009778l7.651556-5.333333c68.252444-47.388444 162.432-30.407111 209.877333 37.888l198.115556 264.391111c46.848 67.470222 29.866667 161.635556-38.442667 209.080889l-7.537778 5.191111c-33.166222 23.054222-73.201778 31.744-112.867556 24.618667-39.637333-7.153778-74.126222-29.312-97.109333-62.407111l-60.515556-87.111111c-8.96-12.913778-26.680889-16.099556-39.580444-7.139556s-16.099556 26.680889-7.139556 39.580444l60.515556 87.111111c31.644444 45.582222 79.132444 76.103111 133.745778 85.944889 54.584889 9.827556 109.767111-2.176 155.335111-33.834667l7.523556-5.191111c94.151111-65.393778 117.532444-195.086222 52.195556-289.137778l-198.115556-264.391111C703.331556 200.988444 638.776889 170.055111 573.112889 170.055111zM750.364444 425.159111c-2.972444 0-5.959111 0.924444-8.519111 2.844444-6.286222 4.707556-7.566222 13.624889-2.844444 19.896889l7.793778 10.382222c4.707556 6.286222 13.639111 7.537778 19.896889 2.844444 6.286222-4.707556 7.566222-13.624889 2.844444-19.896889l-7.793778-10.382222C758.954667 427.107556 754.688 425.159111 750.364444 425.159111zM782.890667 468.536889c-2.972444 0-5.959111 0.924444-8.519111 2.844444-6.286222 4.707556-7.566222 13.624889-2.844444 19.896889l62.947556 83.968c15.089778 21.731556 20.920889 48.554667 16.128 75.093333-4.792889 26.552889-19.626667 49.649778-41.784889 65.024l-4.878222 3.370667c-6.456889 4.48-8.064 13.340444-3.598222 19.797333 4.451556 6.456889 13.312 8.078222 19.797333 3.598222l4.892444-3.384889c28.401778-19.726222 47.416889-49.322667 53.560889-83.342222s-1.336889-68.408889-21.048889-96.796444l-63.246222-84.394667C791.480889 470.499556 787.228444 468.536889 782.890667 468.536889z"  horiz-adv-x="1024" />

    
    <glyph glyph-name="home" unicode="&#58883;" d="M879.913 371.225l0-301.227c0-58.66-47.994-106.655-106.638-106.655l-151.107 0 0 225.113c0 44.839-36.683 81.525-81.525 81.525l-65.083 0c-44.837 0-81.515-36.687-81.515-81.525l0-225.113-143.685 0c-58.668 0-106.673 47.996-106.673 106.655l0 301.227 343.232 264.092c13.705 10.541 36.085 10.541 49.804 0l343.191-264.092zM536.722 805.942c-13.718 10.528-36.1 10.528-49.804 0l-368.282-283.363c-0.762-0.459-1.513-0.962-2.24-1.513l-106.469-80.587c-11.107-8.426-13.324-24.413-4.898-35.525 5.807-7.716 15.285-11.137 24.256-9.708l0.181 0.032 0.21 0.027 0.172 0.034 0.185 0.046 0.18 0.035 0.065 0 0.121 0.023 0.185 0.045 0.19 0.036 0.103 0.03 0.074 0.01 0.186 0.05 0.185 0.032 0.156 0.047 0.038 0.015 0.185 0.042 0.17 0.049 0.183 0.049 0.022 0 0.164 0.054 0.189 0.05 0.165 0.057 0.07 0.01 0.114 0.038 0.181 0.059 0.198 0.059 0.105 0.034 0.066 0.035 0.187 0.046 0.18 0.073 0.155 0.047 0.018 0.014 0.192 0.066 0.185 0.062 0.05 0.032 0.244 0.089 0.045 0.029 0.182 0.063 0.185 0.08 0.062 0.03 0.105 0.047 0.187 0.067 0.259 0.116 0.047 0.017 0.042 0.028 0.201 0.079 0.154 0.086 0.165 0.081 0.187 0.08 0.167 0.087 0.171 0.092 0.035 0.015 0.144 0.063 0.343 0.183 0.089 0.036 0.092 0.044 0.186 0.119 0.154 0.093 0.132 0.061 0.02 0.031 0.173 0.105 0.336 0.189 0.015 0.013 0.497 0.305 0.035 0.019 0.137 0.096 0.336 0.191 0.067 0.067 0.091 0.069 0.438 0.308 0.054 0.033 0.146 0.118 0.185 0.108 0.14 0.138 21.859 16.54 1.669 0 422.859 325.369c13.705 10.529 36.085 10.529 49.804 0l333.872-256.908c1.298-1.617 2.801-3.104 4.524-4.42l74.477-56.362 9.995-7.68 0.141 0 21.872-16.54c0.51-0.423 1.043-0.773 1.605-1.127l0.014-0.006 0.519-0.331 0.037-0.021c0.507-0.302 0.99-0.576 1.498-0.847l0.121-0.053 0.079-0.041 0.393-0.198 0.114-0.035 0.091-0.049 0.169-0.085 0.195-0.087 0.108-0.051 0.092-0.046 0.387-0.167 0.091-0.035 0.105-0.044 0.195-0.08 0.207-0.079 0.092-0.05 0.3-0.103 0.197-0.074 0.067-0.032 0.141-0.037c0.341-0.115 0.666-0.236 0.994-0.327l0.052-0.027 0.558-0.157 0.039-0.014 0.567-0.141 0.016-0.015 0.57-0.129 0.012-0.01 0.059 0 0.375-0.095 0.177-0.039 0.014 0 0.598-0.107 0.018-0.006 0.409-0.069 0.19-0.022 0.013 0 0.595-0.093 0.047 0 0.39-0.052 0 0.012c8.587-0.923 17.447 2.527 23.004 9.876 8.407 11.11 6.206 27.1-4.925 35.511l-31.151 23.577-106.571 82.02 0 111.634c0 28.242-23.12 51.353-51.363 51.353l-40.985 0c-28.244 0-51.356-23.111-51.356-51.353l0-1.068-194.045 149.316zM790.181 678.047c-18.405 0-33.469-15.059-33.469-33.46l0-7.931 91.194-70.159 0 78.09c0 18.4-15.052 33.46-33.457 33.46l-24.269 0zM842.448 354.524l-308.261 228.579c-12.332 9.13-32.43 9.13-44.73 0l-308.29-228.579 0-260.723c0-50.784 43.109-92.314 95.788-92.314l81.422 0 0 203.442c0 49.13 48.231 89.316 107.214 89.316l85.604 0c58.979 0 107.22-40.187 107.22-89.316l0-203.442 88.225 0c52.697 0 95.807 41.53 95.807 92.314l0 260.723z"  horiz-adv-x="1024" />

    
    <glyph glyph-name="microphone" unicode="&#58921;" d="M863.086 455.518v-78.019q0-134.7-89.917-234.369t-222.159-114.298v-80.477h156.038q15.838 0 27.424-11.586t11.586-27.424-11.586-27.424-27.424-11.586h-390.095q-15.838 0-27.424 11.586t-11.586 27.424 11.586 27.424 27.424 11.586h156.038v80.477q-132.282 14.628-222.159 114.298t-89.917 234.369v78.019q0 15.838 11.586 27.424t27.424 11.586 27.424-11.586 11.586-27.424v-78.019q0-112.777 80.164-192.902t192.902-80.164 192.902 80.164 80.164 192.902v78.019q0 15.838 11.586 27.424t27.424 11.586 27.424-11.586 11.586-27.424zM707.047 689.575v-312.076q0-80.477-57.305-137.743t-137.743-57.305-137.743 57.305-57.305 137.743v312.076q0 80.477 57.305 137.743t137.743 57.305 137.743-57.305 57.305-137.743z"  horiz-adv-x="1024" />

    
    <glyph glyph-name="files" unicode="&#58924;" d="M263.449-113.103c-41.425 0-41.425 41.425-41.425 41.425l0 787.079c0 0 0 41.425 41.425 41.425l621.378 0c41.425 0 41.425-41.425 41.425-41.425l0-538.527-289.977-289.977-372.827 0zM263.449-71.678l372.827 0 248.551 248.551 0 538.527-621.378 0 0-787.079zM632.138-106.942c-1.59 0-3.199 0.311-4.727 0.957-4.619 1.946-32.561 29.221-32.561 34.307l0 248.551c0 0 0 41.425 41.425 41.425l289.977 0c0 0-29.605-29.543-33.14-33.14l-252.233-288.419c-2.365-2.405-5.523-3.682-8.741-3.682zM636.276 176.874l0-248.551 248.551 248.551-248.551 0zM801.977 549.7l-455.678 0 0 41.425 455.678 0 0-41.425zM801.977 425.425l-455.678 0 0 41.425 455.678 0 0-41.425zM801.977 301.149l-455.678 0 0 41.425 455.678 0 0-41.425zM180.598 94.023l-41.425 0 0 745.654 579.954 0 0-41.425 41.425 0 0 41.425c0 0 0 41.425-41.425 41.425l-579.954 0c-41.425 0-41.425-41.425-41.425-41.425l0-745.654c0 0 0-41.425 41.425-41.425l41.425 0 0 41.425z"  horiz-adv-x="1024" />

    
    <glyph glyph-name="love" unicode="&#58896;" d="M758.846 864.724c-3.082 0-6.185-0.067-9.311-0.156-72.418-2.521-139.142-33.735-188.575-88.61l-217.111-209.344c0.109-0.113 0.832-0.9 0.832-0.9 36.14-35.781 83.954-55.437 134.713-55.437 0.382 0 0.765 0 1.168 0 51.185 0.317 99.223 17.957 135.231 54.457 0 0 2.887 2.128 21.467 20.89l12.301 12.115 16.166 14.01 7.223-7.173c0.257 0.25 11.44-11.266 11.183-11.515l192.38-206.374 22.279-23.501c23.508 23.642 38.284 38.503 38.284 38.503 58.002 52.804 89.734 127.942 87.058 206.137-4.947 143.532-123.062 256.899-265.286 256.899zM597.303-3.28c-0.439 0.463-0.592 1.063-0.977 1.557l-68.406-70.957c0.995-1.051 1.602-1.69 1.602-1.69 13.897-14.619 31.799-22.354 48.173-22.354 11.334 0 21.926 3.71 29.887 11.312 19.612 18.644 16.439 53.931-6.994 78.691l-3.284 3.44zM663.472 557.574l-19.616-17.99c-43.427-44.034-101.339-68.459-163.094-68.818-61.758-0.359-119.915 23.387-163.813 66.884l-15.54 17.045c-7.173 7.805-6.252 19.161 1.26 26.628l177.39 172.495-12.159 13.009c-50.669 59.958-124.547 94.321-202.629 94.321-146.411 0-265.558-119.377-265.558-266.096 0-72.597 28.832-140.516 81.839-191.926l63.058-67.506 65.706 69.461c31.598 32.182 83.707 32.339 116.137 0.339 16.364-16.126 24.608-37.383 24.763-58.629 4.441 0.775 8.938 1.377 13.55 1.413 0.222 0 0.495 0 0.718 0 22.714 0 44.282-8.928 60.835-25.257 17.546-17.308 26.095-40.089 25.94-62.503 3.317 0.427 6.598 1.025 9.999 1.053 22.443 0.203 43.675-8.434 59.753-24.288 16.079-15.833 25.054-36.974 25.257-59.485 0.042-5.867-0.601-11.617-1.729-17.232 0.198 0.002 0.385 0.059 0.582 0.061 0.246 0 0.496 0 0.719 0 23.074 0 45.024-9.087 61.825-25.663 16.98-16.753 26.47-38.839 26.649-62.185 0.154-16.703-4.578-32.551-13.441-45.949 1.277-0.802 2.644-1.417 3.748-2.54 23.387-23.681 58.879-27.3 79.073-8.05 19.409 18.464 18.305 51.951-1.572 76.374-0.451 0.382-0.991 0.563-1.463 0.99l-134.71 136.649c-7.669 7.781-7.579 20.287 0.178 27.932 7.759 7.693 20.194 7.602 27.863-0.135l130.643-132.508c0.807-0.541 1.756-0.807 2.521-1.484 24.308-21.185 56.809-23.661 75.676-5.713 20.623 19.634 17.767 56.269-6.32 81.729l-134.465 136.375c-7.646 7.738-7.579 20.24 0.158 27.932 7.758 7.648 20.218 7.579 27.886-0.181l130.956-132.823c0.135-0.09 0.292-0.134 0.428-0.27 23.997-24.333 60.518-28.022 81.344-8.231 9.108 8.636 14.237 20.916 14.621 34.543 0.427 17.205-6.726 34.861-19.634 48.443l-235.326 251.783zM595.886 72.352c-0.113 12.819-5.397 25.008-14.913 34.366-9.444 9.354-21.724 14.437-34.543 14.323-11.379-0.089-21.926-4.428-29.617-12.255l-96.626-99.728c-16.843-17.162-15.475-46.015 3.082-64.322 9.469-9.355 21.771-14.438 34.543-14.303 11.402 0.09 21.949 4.454 29.686 12.303l96.579 99.708c7.714 7.849 11.898 18.463 11.808 29.91zM507.841 177.411c-0.114 11.922-4.902 23.166-13.472 31.619-8.613 8.48-19.859 13.069-31.778 12.978-10.007-0.097-19.327-3.691-26.899-9.901-1.919-2.503-3.631-5.122-5.889-7.426l-116.587-118.746c-1.519-1.549-3.298-2.657-4.912-4.051-11.666-17.179-9.68-41.024 5.903-56.388 17.452-17.226 45.383-17.273 62.249-0.113l119.038 121.286c8.05 8.231 12.458 19.116 12.349 30.741zM398.63 294.773c-9.197 9.086-21.093 14.034-33.509 13.945-11.109-0.09-21.321-4.318-28.786-11.919l-27.921-28.449-86.012-90.927c-2.583-2.634-5.509-4.782-8.377-7.011-9.841-16.69-6.749-39.538 8.737-54.79 18.013-17.744 45.945-18.622 62.34-1.979l116.586 118.767c16.33 16.642 14.955 44.619-3.058 62.363zM298.788 377.264c-8.5 8.39-19.52 12.573-30.45 12.573-10.954 0-21.773-4.159-29.934-12.459l-103.488-106.263c-16.304-16.686-15.855-43.83 1.125-60.517 8.323-8.186 19.252-12.684 30.811-12.548 11.245 0.067 21.725 4.498 29.552 12.459l103.509 106.263c16.305 16.64 15.834 43.783-1.125 60.495z"  horiz-adv-x="1024" />

    
    <glyph glyph-name="search" unicode="&#58881;" d="M989.365124 22.544825c21.85764-24.973422 33.760499-46.831061 35.714294-65.567202 1.948078-18.730424-5.271103-37.076377-21.661831-55.026425-18.736141-21.075836-39.416072-31.030616-62.055515-29.858625-22.633727 1.171991-44.491366 10.344968-65.567202 27.513213L679.093265 89.284018c-35.128298-22.633727-72.786383-40.197876-112.989976-52.68673-40.197876-12.488855-82.545355-18.730424-127.036721-18.730424-60.882095 0-117.863745 11.512672-170.940663 34.536586-53.078347 23.029631-99.523509 54.446147-139.331197 94.252406-39.811976 39.811976-71.228492 86.25285-94.252406 139.329768C11.512672 339.06397 0 396.049908 0 456.933432c0 60.883524 11.512672 117.863745 34.542303 170.940663 23.023914 53.078347 54.44043 99.523509 94.252406 139.331197 39.807688 39.811976 86.25285 71.228492 139.331197 94.252406 53.076918 23.029631 110.058568 34.542303 170.940663 34.542303 60.883524 0 117.869462-11.512672 170.94638-34.542303 53.078347-23.023914 99.517792-54.44043 139.329768-94.252406 39.807688-39.807688 71.222775-86.25285 94.252406-139.331197 23.023914-53.076918 34.536586-110.057139 34.536586-170.940663 0-46.054974-6.633185-89.764536-19.903844-131.134403s-32.002511-79.619664-56.198417-114.742246l38.639985-38.639985c18.730424-18.730424 38.439889-38.249797 59.124108-58.543829s39.61188-39.416072 56.784413-57.371837C973.754771 38.551083 984.680017 27.228503 989.365124 22.544825L989.365124 22.544825zM443.751675 164.220005c40.588063 0 78.83786 7.609369 114.742246 22.829535 35.904385 15.224454 67.13081 36.105911 93.66641 62.641511 26.541317 26.541317 47.422774 57.762025 62.641511 93.66641 15.218737 35.910102 22.835252 74.154183 22.835252 114.747963 0 40.589492-7.615086 78.832143-22.835252 114.742246-15.218737 35.905815-36.100194 67.125093-62.641511 93.667839-26.5356 26.5356-57.762025 47.415628-93.66641 62.641511-35.904385 15.218737-74.154183 22.828106-114.742246 22.828106-40.589492 0-78.83929-7.609369-114.743675-22.828106-35.904385-15.225883-67.129381-36.105911-93.66641-62.641511-26.541317-26.542747-47.422774-57.762025-62.641511-93.667839-15.218737-35.910102-22.829535-74.152753-22.829535-114.742246 0-40.59378 7.610798-78.83786 22.829535-114.747963 15.218737-35.904385 36.100194-67.125093 62.641511-93.66641 26.53703-26.5356 57.762025-47.417057 93.66641-62.641511C364.912385 171.829373 403.162183 164.220005 443.751675 164.220005L443.751675 164.220005zM443.751675 164.220005"  horiz-adv-x="1026" />

    
    <glyph glyph-name="flag" unicode="&#58934;" d="M182.857143 665.714286q0-41.142857-36.571429-62.857143l0-723.428571q0-7.428571-5.428571-12.857143t-12.857143-5.428571l-36.571429 0q-7.428571 0-12.857143 5.428571t-5.428571 12.857143l0 723.428571q-36.571429 21.714286-36.571429 62.857143 0 30.285714 21.428571 51.714286t51.714286 21.428571 51.714286-21.428571 21.428571-51.714286zm841.142857-36.571429l0-436q0-14.285714-7.142857-22t-22.571429-15.714286q-122.857143-66.285714-210.857143-66.285714-34.857143 0-70.571429 12.571429t-62 27.428571-66 27.428571-81.428571 12.571429q-109.714286 0-265.142857-83.428571-9.714286-5.142857-18.857143-5.142857-14.857143 0-25.714286 10.857143t-10.857143 25.714286l0 424q0 18.285714 17.714286 31.428571 12 8 45.142857 24.571429 134.857143 68.571429 240.571429 68.571429 61.142857 0 114.285714-16.571429t125.142857-50.285714q21.714286-10.857143 50.285714-10.857143 30.857143 0 67.142857 12t62.857143 26.857143 50.285714 26.857143 31.142857 12q14.857143 0 25.714286-10.857143t10.857143-25.714286z"  horiz-adv-x="1024" />

    
    <glyph glyph-name="arrow-right" unicode="&#58880;" d="M699.980325 383.645936 266.659269 802.193521l28.863375 27.879977 447.568549-432.311053 14.248516-13.762445L295.523667-62.073498l-28.498054 27.525913L699.980325 383.645936 699.980325 383.645936z"  horiz-adv-x="1024" />

    
    <glyph glyph-name="pen" unicode="&#58922;" d="M940.64 813.44c-52.64 52.576-121.952 82.56-190.272 82.56-57.632 0-110.688-21.376-149.44-60.064l-155.744-156.928c-0.48-0.448-1.024-0.736-1.504-1.216-0.256-0.256-0.416-0.608-0.672-0.832l0.064-0.064-330.528-333.088c-15.232-15.136-26.272-33.984-32.416-54.56l-75.168-272.256c-0.064-0.736-4.96-22.112-4.96-32.992 0-61.824 50.208-112 112.128-112 12.32 0 36.16 5.888 37.024 6.016l271.296 71.328c20.608 6.112 39.328 17.248 54.56 32.512l488.416 492.256c88.832 88.896 78.816 237.888-22.784 339.328zM512.448 134.56c-2.624 28.864-10.784 57.184-23.008 84.064l302.56 302.528c18.496-58.432 8.992-119.552-31.552-160.128-0.256-0.256-0.576-0.416-0.8-0.672l0.448-0.416-247.296-249.28c0 7.968 0.384 15.776-0.352 23.904zM473.376 247.808c-11.936 19.616-25.504 38.56-42.304 55.328-19.552 19.552-41.984 34.88-65.408 47.744l305.024 305.024c23.936-10.624 46.88-25.76 67.136-46.016 17.312-17.248 30.688-36.576 40.992-56.672l-305.44-305.408zM335.552 366.016c-29.632 11.936-60.672 18.752-91.776 19.168l246.496 248.384c37.728 36.8 92.672 47.392 146.784 33.984l-301.504-301.536zM133.344-59.936c-3.488-0.8-14.336-3.552-21.696-4.064-26.304 0.32-47.648 21.696-47.648 48 0.384 5.376 2.528 14.624 3.264 17.984l33.696 122.048c36.576 0.992 75.936-13.248 106.88-44.256 31.424-31.36 46.208-71.488 44.608-108.512l-119.104-31.2zM283.968-20.384c-0.768 42.944-18.24 87.616-53.504 122.816-33.344 33.376-76.992 52.64-120.512 54.368l31.872 115.424c2.304 7.68 6.88 15.264 12.512 21.888 64.192 45.952 162.912 32.384 231.488-36.256 72.544-72.512 83.744-178.752 27.872-242.176-3.712-1.952-7.456-3.808-11.488-4.992l-118.24-31.072zM918.112 519.296l-53.888-54.304c0 7.232 0.864 14.176 0.192 21.568-5.632 61.92-34.496 121.792-81.376 168.608-52.128 52.16-121.248 82.08-189.696 82.272l52.992 53.44c26.528 26.464 63.552 41.12 104.032 41.12 51.488 0 104.384-23.296 145.056-63.84 38.176-38.112 60.928-85.472 64.192-133.376 3.008-44.704-11.744-85.696-41.504-115.488z"  horiz-adv-x="1025" />

    
    <glyph glyph-name="identify" unicode="&#58897;" d="M511.954-128c-149.366 0-427.156 228.526-427.156 444.621l0 430.469 42.47 0.707c0.911 0 95.718 2.017 193.551 41.718 100.347 40.761 165.059 87.567 165.668 88.013l25.359 18.473 25.564-18.468c0.609-0.451 65.321-47.252 165.668-88.013 97.828-39.706 192.64-41.718 193.649-41.718l42.271-0.707 0.199-430.469c0.005-216.1-277.786-444.626-427.244-444.626zM171.054 664.561l0-347.94c0-167.076 241.961-358.359 340.9-358.359s340.9 191.283 340.9 358.359l0 347.94c-42.281 4.588-110.919 16.108-182.18 45.041-73.068 29.696-128.532 61.998-158.72 81.223-30.095-19.226-85.652-51.529-158.623-81.223-71.363-28.938-140.006-40.458-182.277-45.041zM489.103 154.875l-181.371 154.496 55.762 65.623 116.352-99.041 220.826 254.393 65.207-56.566-276.777-318.903z"  horiz-adv-x="1024" />

    
    <glyph glyph-name="article" unicode="&#58886;" d="M514.025 829.493c43.879 40.133 98.37 48.508 152.379 56.801 74.389 11.44 148.839 9.179 222.595-7.909 24.496-5.68 48.991-13.335 72.281-23.994 15.305-7.003 29.757-19.172 42.209-32.368 14.333-15.169 17.746-37.728 17.755-60.199 0.126-188.876 0.071-377.761 0.071-566.637 0-85.959 0.219-171.918-0.156-257.877-0.091-20.411-3.783-39.958-19.244-52.546-15.894-12.94-32.07-12.246-49.243-3.143-12.308 6.522-25.142 12.951-38.261 15.588-67.189 13.502-135.106 14.803-202.868 11.747-43.833-1.985-87.504-9.995-131.203-15.722-4.882-0.638-10.139-2.9-14.151-6.287-11.844-9.983-24.907-12.588-38.814-11.916-17.363 0.838-34.737 1.58-52.094 2.537-2.167 0.121-4.557 0.751-6.4 2.064-37.325 26.529-79.497 23.351-120.091 27.171-39.423 3.697-79.274 4.457-118.768 2.183-45.429-2.612-90.78-8.999-135.95-15.874-12.997-1.975-24.972-12.398-37.887-16.965-19.951-7.052-44.67 11.361-48.809 33.082-2.48 12.997-4.476 26.487-4.485 39.75-0.254 266.749-0.091 533.497-0.272 800.234-0.047 59.99 15.823 82.078 58.775 104.549 37.153 19.436 77.194 27.27 117.297 32.798 74.514 10.272 148.828 8.671 222.646-8.032 20.515-4.643 41.11-10.291 60.727-18.733 17.666-7.587 34.042-19.634 51.961-30.303l0 0zM488.762-24.079c0 7.182 0 11.385 0 15.586-0.1 103.699-0.29 207.398-0.281 311.107 0.029 153.057 0.091 306.123 0.471 459.177 0.037 13.493-3.614 23.762-12.881 29.931-11.329 7.546-22.857 16.217-35.19 19.647-31.754 8.826-63.771 17.728-96.083 21.743-76.747 9.521-153.451 7.391-228.83-14.892-18.826-5.561-36.79-16.14-54.509-26.112-9.73-5.474-13.616-16.549-13.597-30.582 0.254-257.137 0.191-514.289 0.217-771.429 0-3.675 0.256-7.345 0.308-8.837 11.184 7.691 21.932 17.244 33.914 22.945 46.729 22.24 96.109 28.882 145.645 30.803 38.514 1.478 77.194-0.873 115.716-3.332 35.038-2.229 69.557-9.607 102.891-23.519 15.222-6.355 30.279-13.404 42.208-32.236l0 0zM861.218 829.615l0-489.986c-0.735-0.43-1.468-0.861-2.214-1.292-33.167 40.62-66.337 81.236-100.394 122.948-33.731-41.413-66.89-82.121-100.05-122.828-0.763 0.319-1.534 0.638-2.297 0.96l0 491.167c-31.751-5.518-61.708-11.873-89.901-26.666-7.49-3.926-14.551-9.398-21.223-15.169-6.446-5.581-9.677-13.469-9.667-23.785 0.135-259.796 0.1-519.606 0.135-779.405 0-2.307 0.571-4.601 0.491-3.97 11.103 7.611 21.667 16.912 33.423 22.547 45.467 21.798 93.604 28.526 141.805 30.857 59.375 2.866 118.949 2.414 177.534-12.477 30.972-7.865 62.634-14.784 87.622-44.976 0 5.151 0.01 8.859 0 12.565-0.209 54.342-0.599 108.675-0.581 163.018 0.018 68.585 0.509 137.158 0.553 205.741 0.109 132.218-0.343 264.432 0.437 396.639 0.126 21.633-7.261 33.977-21.667 42.912-28.958 17.956-60.348 24.843-94.007 31.197l0 0z"  horiz-adv-x="1024" />

    
    <glyph glyph-name="manage" unicode="&#58910;" d="M513.344 551.584c-90.56 0-164.224-73.632-164.224-164.16s73.664-164.192 164.224-164.192 164.192 73.664 164.192 164.192S603.904 551.584 513.344 551.584zM513.344 277.472c-60.64 0-109.952 49.312-109.952 109.952s49.344 109.952 109.952 109.952 109.952-49.312 109.952-109.952S573.984 277.472 513.344 277.472zM861.312 509.408 845.44 509.408l-1.248 3.296-4.416-1.92 3.84 3.168c-2.784 7.232-5.344 13.472-7.904 19.104l-1.28 2.848 11.232 11.264c21.056 21.024 32.672 49.024 32.672 78.784s-11.584 57.76-32.672 78.816L830.784 719.68c-21.056 21.056-49.056 32.64-78.848 32.64-29.76 0-57.76-11.584-78.816-32.64l-11.232-11.264-2.848 1.28c-6.08 2.752-12.864 5.536-20.736 8.48l-2.912 1.12 0 16c0 61.472-50.016 111.456-111.488 111.456l-21.088 0c-61.472 0-111.488-50.016-111.488-111.456l0-16-2.912-1.088c-7.84-2.944-14.624-5.76-20.736-8.512L364.8 708.448 353.568 719.68c-21.056 21.056-49.056 32.64-78.816 32.64-29.76 0-57.76-11.584-78.816-32.64L180.992 704.768C159.936 683.712 148.352 655.744 148.352 625.952c0-29.76 11.584-57.76 32.672-78.816l11.232-11.264-1.28-2.816c-2.56-5.664-5.056-11.712-7.936-19.168l-1.792-4.48L165.344 509.408c-61.472 0-111.488-50.016-111.488-111.456l0-21.088c0-61.472 50.016-111.456 111.488-111.456l15.872 0 1.792-4.544c2.784-7.264 5.344-13.504 7.904-19.136l1.28-2.816-11.232-11.264c-21.056-21.056-32.64-49.024-32.64-78.816s11.584-57.76 32.64-78.816l14.912-14.912c21.056-21.056 49.056-32.64 78.816-32.64 29.76 0 57.76 11.584 78.816 32.64l11.264 11.232 2.848-1.28c6.112-2.752 12.896-5.536 20.736-8.48l2.912-1.12 0-15.968c0-61.472 50.016-111.456 111.488-111.456l21.088 0c61.472 0 111.488 50.016 111.488 111.456l0 15.968 2.912 1.12c7.872 2.944 14.656 5.728 20.736 8.48l2.816 1.28 11.264-11.232c21.056-21.056 49.024-32.64 78.816-32.64s57.792 11.584 78.848 32.64l14.912 14.912c21.056 21.024 32.672 49.024 32.672 78.816s-11.584 57.792-32.672 78.816l-11.232 11.264 1.28 2.848c2.56 5.632 5.12 11.904 7.936 19.168l-4.48 1.728 0 0 5.216-0.064 1.056 2.816 15.872 0c61.472 0 111.488 50.016 111.488 111.456l0 21.088C972.8 459.392 922.784 509.408 861.312 509.408zM916.032 426.72 916.032 426.72 916.032 426.72 916.032 426.72zM782.688 694.496 782.688 694.496 782.688 694.496 782.688 694.496zM111.136 347.232 111.136 347.232 111.136 347.232 111.136 347.232zM205.824 118.816 205.824 118.816 205.824 118.816 205.824 118.816zM472.224-14.24 472.224-14.24 472.224-14.24 472.224-14.24zM552.832-15.104 552.832-15.104 552.832-15.104 552.832-15.104zM918.56 376.864c0-3.648-0.384-7.392-1.152-11.168-0.256-1.312-0.64-2.4-0.928-3.328l-0.672-2.24c-0.384-1.44-0.832-3.104-1.536-4.832-0.736-1.792-1.632-3.36-2.848-5.6l-0.576-1.088c-0.384-0.736-0.832-1.6-1.44-2.56-1.568-2.432-3.328-4.576-5.344-6.88-0.224-0.288-0.544-0.704-0.96-1.152-1.952-2.08-4.192-4.096-7.552-6.72-8.384-6.304-18.464-10.144-29.024-11.136-0.544-0.032-1.088-0.096-1.696-0.192-0.96-0.128-2.144-0.288-3.488-0.288l-56.192 0-0.896-3.648c-7.04-28.448-18.88-56.448-35.2-83.232l-1.984-3.232 40.256-40.256c8.736-8.736 14.272-20 16.096-33.408 0.448-3.424 0.576-6.4 0.48-9.12-0.032-0.672-0.096-1.248-0.192-2.304-0.16-2.368-0.416-5.12-1.024-7.872-0.224-1.024-0.544-1.92-0.768-2.656l-0.704-2.432c-0.448-1.472-0.928-3.136-1.696-4.96-0.672-1.664-1.504-3.072-2.784-5.344L816 119.872c-0.384-0.768-0.864-1.76-1.536-2.752-2.144-3.2-4.544-6.112-7.104-8.704l-14.944-14.912c-2.592-2.56-5.472-4.96-8.736-7.136-0.992-0.672-1.92-1.12-2.656-1.504l-1.344-0.704 2.368-4.16 0 0-3.552 3.488c-1.248-0.704-2.656-1.504-4.288-2.176-1.632-0.704-3.168-1.152-4.768-1.6l1.344-4.608 0 0-2.784 4.192-1.184-0.384c-0.672-0.224-1.568-0.512-2.592-0.704-2.816-0.64-5.568-0.896-7.648-1.056l-4.384-0.256c-2.24 0-4.672 0.192-8.192 0.608-12.544 1.76-23.776 7.296-32.512 16l-40.192 40.224-3.232-1.984c-26.848-16.384-54.848-28.256-83.296-35.264l-3.648-0.896 0-56.064c0-1.408-0.16-2.656-0.288-3.552l-0.192-1.536c-0.96-10.656-4.8-20.704-11.648-29.792-2.08-2.688-4.096-4.928-6.24-6.912-0.448-0.416-0.832-0.736-1.696-1.376-1.888-1.632-4-3.36-6.336-4.896-0.896-0.576-1.76-1.024-2.752-1.536l-1.472-0.768c-1.472-0.832-3.136-1.76-5.088-2.592-1.696-0.672-3.328-1.12-5.856-1.824l-1.344-0.416c-0.832-0.288-1.888-0.64-3.136-0.864-3.712-0.736-7.488-1.12-11.2-1.12l-21.088 0c-3.712 0-7.456 0.384-11.2 1.12-1.216 0.256-2.24 0.608-3.328 0.96l-2.272 0.672c-1.408 0.384-3.04 0.832-4.8 1.536-1.888 0.8-3.552 1.728-5.76 2.944l-1.088 0.576c-0.672 0.32-1.504 0.736-2.368 1.344-2.496 1.6-4.608 3.36-6.816 5.28-0.32 0.256-0.768 0.576-1.312 1.088-2.08 1.952-4.128 4.192-6.752 7.616-6.272 8.384-10.112 18.4-11.072 28.928l-0.192 1.632c-0.128 0.96-0.32 2.176-0.32 3.552l0 56.032-3.648 0.896c-28.448 7.04-56.48 18.912-83.296 35.264l-3.232 1.984L315.2 93.472c-8.736-8.704-19.968-14.24-33.312-16.096-2.72-0.32-5.12-0.512-7.36-0.512l-4.096 0.224c-2.336 0.192-5.088 0.448-7.968 1.088-0.992 0.192-1.856 0.48-2.56 0.704l-1.408 0.416-1.312-4.608 0 0 0 4.992c-1.408 0.416-3.008 0.864-4.704 1.6-1.664 0.672-3.136 1.536-5.44 2.848l-1.408 0.736c-0.768 0.384-1.696 0.864-2.656 1.472-3.168 2.144-6.112 4.544-8.704 7.104l-14.912 14.912C216.768 110.976 214.4 113.888 212.256 117.12c-0.672 0.992-1.152 1.984-1.824 3.264l-0.992 1.792c-0.736 1.312-1.568 2.752-2.304 4.512s-1.216 3.392-1.632 4.864l-0.768 2.624c-0.224 0.672-0.512 1.504-0.704 2.432-0.608 2.72-0.832 5.44-1.152 8.896l-0.096 1.28c-0.096 2.784 0.032 5.76 0.576 10.112 1.76 12.512 7.296 23.744 16 32.448l40.256 40.256-1.984 3.232c-16.32 26.784-28.16 54.784-35.232 83.232l-0.896 3.648L165.344 319.712c-1.376 0-2.592 0.16-3.648 0.32l-0.64-4.736-0.8 4.928c-10.688 0.96-20.768 4.8-29.824 11.648-2.624 2.016-4.864 4.064-6.816 6.112-0.448 0.48-0.768 0.896-1.472 1.824-1.536 1.76-3.296 3.904-4.896 6.368-0.544 0.8-0.928 1.568-1.28 2.208l-4.384-1.952 3.776 3.136-0.576 1.056c-0.768 1.408-1.664 2.976-2.432 4.832-0.704 1.728-1.152 3.36-1.824 5.824l-0.416 1.344c-0.288 0.864-0.64 1.952-0.896 3.232-0.736 3.68-1.152 7.424-1.152 11.168l0 21.088c0 3.744 0.384 7.456 1.152 11.168 0.256 1.312 0.64 2.4 0.928 3.328l0.704 2.336c0.384 1.408 0.832 3.04 1.504 4.704 0.736 1.792 1.6 3.328 2.88 5.664l0.576 1.12c0.352 0.672 0.8 1.568 1.408 2.528 1.536 2.4 3.264 4.416 5.408 7.008 0.192 0.256 0.48 0.608 0.896 1.056 1.952 2.112 4.192 4.128 7.52 6.72 8.384 6.304 18.464 10.144 29.12 11.104l1.568 0.192c0.96 0.128 2.176 0.32 3.552 0.32l56.192 0 0.896 3.648c7.04 28.48 18.88 56.448 35.2 83.232l1.984 3.232L219.36 585.504C210.656 594.208 205.12 605.44 203.264 618.976 202.816 622.336 202.688 625.312 202.784 628.064l0.192 2.24C203.2 632.8 203.424 635.488 204.032 638.272c0.192 0.992 0.512 1.888 0.704 2.592l0.832 2.784c0.416 1.376 0.864 2.944 1.536 4.544 0.704 1.664 1.536 3.168 2.304 4.448l0.608 1.12L205.856 656.032l4.864-1.056c0.384 0.768 0.864 1.728 1.536 2.752 2.08 3.168 4.48 6.08 7.104 8.704L234.24 681.344c2.656 2.592 5.568 4.992 8.736 7.136 0.992 0.64 1.952 1.12 2.912 1.632l2.144 1.184C249.344 692 250.816 692.832 252.48 693.536c1.728 0.736 3.36 1.216 4.672 1.6l2.88 0.864c0.672 0.192 1.472 0.48 2.496 0.672C265.344 697.312 268.16 697.536 271.04 697.76c0.416 0.032 0.896 0.096 1.6 0.128l1.696 0.032c2.304 0 4.704-0.16 8.416-0.608 12.512-1.76 23.744-7.296 32.448-16l40.192-40.224 3.232 1.984c26.752 16.352 54.784 28.224 83.296 35.264l3.648 0.896L445.568 735.328c0 1.408 0.16 2.656 0.288 3.584l0.192 1.504c0.96 10.656 4.8 20.704 11.648 29.792 2.08 2.656 4.096 4.928 6.24 6.912 0.48 0.448 0.896 0.768 1.664 1.376 1.92 1.632 4 3.392 6.4 4.896 0.864 0.576 1.696 0.992 2.848 1.6l1.216 0.64c1.504 0.832 3.232 1.824 5.184 2.624 1.696 0.704 3.328 1.152 4.8 1.536l2.432 0.736c0.832 0.288 1.888 0.64 3.136 0.864 3.712 0.736 7.456 1.12 11.168 1.12l21.088 0c3.712 0 7.456-0.384 11.232-1.152 1.184-0.224 2.176-0.576 3.296-0.928l2.24-0.672c1.44-0.384 3.072-0.832 4.8-1.536 1.92-0.768 3.584-1.728 5.728-2.912l1.472-0.736c0.608-0.32 1.312-0.672 2.016-1.152 2.4-1.568 4.512-3.296 6.88-5.312 0.288-0.256 0.736-0.576 1.248-1.056 2.112-1.984 4.16-4.224 6.752-7.584 6.304-8.384 10.112-18.432 11.136-29.312l0.16-1.408c0.128-0.96 0.288-2.112 0.288-3.456l0-56.032 3.648-0.896c28.48-7.04 56.512-18.912 83.296-35.264l3.232-1.984 40.224 40.224c8.704 8.672 19.936 14.208 33.6 16.064 2.592 0.352 4.96 0.512 7.264 0.512l1.696-0.032c0.64 0 1.184-0.096 2.336-0.224 2.144-0.16 4.96-0.416 7.808-1.024 1.024-0.224 1.92-0.512 3.776-1.088l1.408-0.416c1.44-0.416 3.104-0.896 4.832-1.632 1.728-0.704 3.2-1.568 5.44-2.848l1.536-0.8c0.704-0.384 1.6-0.8 2.56-1.44 3.136-2.112 6.048-4.512 8.672-7.072l14.912-14.944c2.56-2.592 4.96-5.504 7.072-8.672 0.672-0.992 1.152-1.984 1.792-3.232l1.056-1.888c0.704-1.312 1.568-2.752 2.24-4.416 0.736-1.76 1.248-3.424 1.664-4.96l0.768-2.56C822.176 640 822.432 639.168 822.656 638.24c0.64-2.816 0.864-5.568 1.12-8.576 0.032-0.416 0.096-0.992 0.128-1.568 0.096-2.816-0.032-5.856-0.544-10.112-1.76-12.512-7.296-23.744-16-32.512l-40.256-40.224 1.984-3.232c16.32-26.784 28.16-54.784 35.2-83.232l0.896-3.648 56.192 0c1.376 0 2.592-0.16 3.552-0.32l1.568-0.192c10.656-0.96 20.736-4.8 29.824-11.648 2.656-2.048 4.864-4.064 6.944-6.272 0.352-0.352 0.608-0.704 1.376-1.696 1.632-1.888 3.328-3.904 4.864-6.304 0.576-0.864 0.992-1.728 1.888-3.456l0.608-1.088c0.768-1.376 1.632-2.944 2.368-4.704 0.64-1.6 1.056-3.136 1.44-4.512l0.768-2.528c0.288-0.896 0.672-2.016 0.928-3.328 0.736-3.744 1.152-7.52 1.152-11.168L918.656 376.864z"  horiz-adv-x="1024" />

    
    <glyph glyph-name="file" unicode="&#58887;" d="M462.581 839.847c30.014 13.04 65.202 11.178 92.832 0 23.57-9.536 371.693-156.983 421.63-178.214 51.85-22.045 43.866-60.329 0-78.862-43.866-18.533-390.199-164.916-417.387-175.731-37.465-14.903-67.27-13.971-97.077-1.242-27.036 11.547-397.87 167.969-431.483 182.096s-33.302 54.799 0 69.082c47.555 20.395 392.368 165.877 431.483 182.871zM78.002 622.5c0 0 391.203-165.971 408.177-172.705 16.972-6.737 31.046-6.532 46.779 0 19.265 7.995 407.762 172.729 407.762 172.729s-400.361 169.821-409.833 173.857-32.048 4.041-41.605 0c-9.556-4.041-411.279-173.881-411.279-173.881zM965.972 472.861c0 0-413.642-174.706-432.906-182.702-15.731-6.532-29.805-6.738-46.779 0-16.972 6.737-433.332 182.702-433.332 182.702l-19.338-45.617c0 0 402.039-169.535 429.072-181.079 29.805-12.73 59.613-13.66 97.077 1.242 27.186 10.815 426.075 179.504 426.075 179.504l-19.871 45.95zM965.972 313.413c0 0-413.642-174.707-432.906-182.702-15.731-6.531-29.805-6.736-46.779 0s-433.332 182.702-433.332 182.702l-19.338-45.617c0 0 402.039-169.534 429.072-181.078 29.805-12.73 59.613-13.66 97.077 1.242 27.186 10.814 426.075 179.503 426.075 179.503l-19.871 45.95zM965.744 153.399c0 0-413.641-174.707-432.903-182.701-15.731-6.531-29.805-6.737-46.779 0-16.972 6.736-433.332 182.701-433.332 182.701l-19.338-45.617c0 0 402.038-169.534 429.072-181.078 29.805-12.731 59.613-13.661 97.077 1.242 27.186 10.815 426.074 179.503 426.074 179.503l-19.871 45.95z"  horiz-adv-x="1024" />

    
    <glyph glyph-name="ask" unicode="&#58909;" d="M510.2 53.989c-28.317 0-55.928 2.572-82.767 7.008l-194.014-117.739 0 196.039c-101.153 71.036-166.083 179.967-166.083 302.303 0 214.072 198.289 387.578 442.864 387.578s442.864-173.508 442.864-387.578-198.258-387.611-442.864-387.611zM510.2 773.797c-214.008 0-387.483-148.725-387.483-332.197 0-112.564 65.475-211.886 165.375-271.992l-1.736-128.411 130.308 78.333c30.022-6.397 61.233-10.158 93.567-10.158 214.008 0 387.483 148.725 387.483 332.228 0 183.472-173.475 332.197-387.514 332.197zM731.633 386.217c-30.567 0-55.35 24.783-55.35 55.383s24.783 55.383 55.35 55.383 55.35-24.783 55.35-55.383-24.75-55.383-55.35-55.383zM510.2 386.217c-30.567 0-55.35 24.783-55.35 55.383s24.783 55.383 55.35 55.383c30.567 0 55.35-24.783 55.35-55.383s-24.75-55.383-55.35-55.383zM288.8 386.217c-30.567 0-55.35 24.783-55.35 55.383s24.783 55.383 55.35 55.383c30.567 0 55.35-24.783 55.35-55.383s-24.783-55.383-55.35-55.383z"  horiz-adv-x="1024" />

    
    <glyph glyph-name="adv-help" unicode="&#58950;" d="M279.82734222 531.99644445h-128.48583111c-9.74848 0-28.08832-13.9264-28.08832-23.66919112v-46.48277333h175.38048v46.48277333c0 9.74279111-9.07832889 23.66919111-18.80405333 23.66919112zM123.25205333-5.291804449999972c0-9.76213333 18.34097778-23.92632889 28.08832-23.92632888h128.48583112c9.72686222 0 18.80405333 14.16419555 18.80405333 23.92632888v81.30332445h-175.38048v-81.30332445zM123.25205333 426.76906667h175.38048v-280.60672h-175.38048v280.60672zM548.58183111 812.60316445h-113.72316444c-9.74279111 0-31.00103111-26.97443555-31.00103112-36.72177778v-68.5056h175.38048v68.5056c0.00113778 9.74961778-20.91235555 36.72177778-30.65514666 36.72177778zM403.85877333-0.8715377800000397c0-9.72686222 21.25596445-28.34432 31.00103112-28.34432h113.72316444c9.74279111 0 30.65628445 18.61745778 30.65628444 28.34432v673.17191111h-175.38161778v-673.17191111zM913.31470222 24.90481778000003l-19.456 55.76476444-117.12739555-40.89969777 19.47079111-55.76476445c3.23811555-9.20120889 8.66759111-9.50499555 17.86424889-6.28622222l87.82734222 30.69269333c9.17845333 3.20170667 14.62727111 7.29656889 11.42442666 16.49322667zM781.81489778 401.29991111c-3.18577778 9.23192889-10.97841778 11.83516445-20.19328 8.59818667l-87.80913778-30.69269333c-9.21486222-3.18464-12.29710222-9.60739555-9.07832889-18.80405334l106.13532444-303.88224 117.12853334 40.90083556-106.18424889 303.87996444z"  horiz-adv-x="1024" />

    
    <glyph glyph-name="list" unicode="&#58898;" d="M0 896l256 0 0-256-256 0zM384 832l640 0 0-128-640 0zM0 512l256 0 0-256-256 0zM384 448l640 0 0-128-640 0zM0 128l256 0 0-256-256 0zM384 64l640 0 0-128-640 0z"  horiz-adv-x="1024" />

    
    <glyph glyph-name="folder" unicode="&#58918;" d="M628.453 753.027l275.904 0c17.585 0 31.836 14.252 31.836 31.833 0 17.59-14.251 31.836-31.836 31.836l-275.904 0c-17.585 0-31.833-14.246-31.833-31.836 0.001-17.581 14.247-31.833 31.833-31.833zM861.914 692.859l-212.235 0c-60.876 0-97.571 29.027-108.697 54.982-22.862 53.348-103.877 93.577-188.432 93.577l-191.011 0c-87.777 0-159.177-71.393-159.177-159.171l0-594.229c0-87.766 71.405-159.166 159.177-159.166l700.374 0c87.772 0 159.177 71.401 159.177 159.166l0 445.676c0 87.766-71.406 159.167-159.177 159.167zM957.415 88.014c0-52.662-42.839-95.502-95.502-95.502l-700.374 0c-52.661 0-95.507 42.839-95.507 95.502l0 594.23c0 52.662 42.847 95.503 95.507 95.503l191.011 0c60.863 0 118.791-29.038 129.909-54.983 22.862-53.346 82.647-93.577 167.218-93.577l212.235 0c52.662 0 95.502-42.839 95.502-95.495l0-445.678zM693.341 343.074l-148.922 0 0 149.194c0 18.153-14.59 33.004-32.421 33.004s-32.421-14.851-32.421-33.004l0-149.196-149.467 0c-18.153 0-33.004-14.589-33.004-32.42s14.851-32.42 33.004-32.42l149.468 0 0-149.196c0-18.153 14.59-33.004 32.421-33.004s32.421 14.851 32.421 33.004l0 149.196 148.921 0c18.153 0 33.004 14.589 33.004 32.42s-14.851 32.421-33.004 32.421z"  horiz-adv-x="1024" />

    
    <glyph glyph-name="anno" unicode="&#58900;" d="M85.333333 581.973333l0-440.32c0-23.893333 20.48-44.373333 44.373333-44.373333l112.64 0L242.346667-59.733333l201.386667 157.013333 266.24 0c44.373333 0 68.266667 17.066667 68.266667 68.266667L778.24 585.386667c0 51.2 0 44.373333-44.373333 44.373333L129.706667 629.76C109.226667 629.76 85.333333 605.866667 85.333333 581.973333L85.333333 581.973333zM897.706667 827.733333 368.64 827.733333C344.746667 827.733333 324.266667 810.666667 324.266667 790.186667l0-95.573333 71.68 0L395.946667 759.466667l471.04 0 0-307.2L836.266667 452.266667l0-68.266667 61.44 0c20.48 0 40.96 17.066667 40.96 37.546667L938.666667 790.186667C938.666667 814.08 918.186667 827.733333 897.706667 827.733333zM706.56 192.853333c0-30.72-13.653333-40.96-40.96-40.96l-228.693333 0-143.36-105.813333 0 105.813333-143.36 0L150.186667 575.146667l559.786667 0L709.973333 192.853333 706.56 192.853333zM262.826667 387.413333l331.093333 0L593.92 452.266667l-331.093333 0L262.826667 387.413333zM262.826667 254.293333l331.093333 0 0 64.853333-331.093333 0L262.826667 254.293333z"  horiz-adv-x="1024" />

    
    <glyph glyph-name="mail" unicode="&#58923;" d="M305.599 314.003l-105.875-105.876c-8.883-8.882-8.883-23.27 0-32.155 8.882-8.882 23.271-8.882 32.154 0l105.877 105.876c8.882 8.882 8.882 23.27 0 32.155-8.885 8.884-23.274 8.884-32.156 0zM898.307 782.893l-773.105 0c-50.228 0-90.953-40.725-90.953-90.954l0-591.196c0-50.23 40.725-90.955 90.953-90.955l773.105 0c50.228 0 90.954 40.726 90.954 90.955l0 591.196c0 50.228-40.725 90.954-90.954 90.954zM943.783 100.743c0-25.093-20.363-45.479-45.476-45.479l-773.105 0c-25.114 0-45.476 20.386-45.476 45.479l0 591.196c0 25.137 20.363 45.477 45.476 45.477l773.105 0c25.114 0 45.476-20.339 45.476-45.477l0-591.196zM796.34 617.729l-66.818-66.838c-1.043-1.022-1.531-2.354-2.33-3.509l-183.283-183.283c-17.765-17.763-46.544-17.763-64.308 0l-248.257 248.17c-8.882 8.882-23.271 8.882-32.154 0-8.883-8.883-8.883-23.271 0-32.155l64.306-64.307c0.067-0.045 0.156-0.09 0.223-0.133l183.728-183.727c35.506-35.53 93.108-35.53 128.613 0l182.929 182.928c1.332 0.843 2.775 1.465 3.951 2.62l66.817 66.794c9.216 9.236 9.216 24.204 0 33.441-9.236 9.195-24.181 9.195-33.419 0.001zM711.85 321.553c-9.284 9.282-24.316 9.282-33.598 0-9.28-9.28-9.28-24.336 0-33.619l111.649-111.648c9.282-9.283 24.338-9.283 33.62 0 9.26 9.28 9.26 24.338 0 33.618l-111.67 111.649z"  horiz-adv-x="1024" />

    
    <glyph glyph-name="analysis" unicode="&#58905;" d="M363.959242 660.840145l349.373945 0c12.117015 0 22.99989 5.048756 29.84376 13.912129 6.84387 8.863372 9.199956 20.643804 6.282897 32.312041l-12.790183 51.385121c-5.273146 21.092582-26.477923 37.697381-48.243673 37.697381l-49.814397 0c-5.609729 0-12.453599 5.273146-13.799934 10.77068l-12.790183 51.385121c-5.273146 21.092582-26.477923 37.697381-48.243673 37.697381l-49.814397 0c-21.877945 0-42.970527-16.492604-48.355867-37.585187l-12.790183-51.385121c-1.346335-5.38534-8.190205-10.77068-13.799934-10.77068l-49.926591 0c-21.76575 0-42.858332-16.604799-48.243673-37.697381L327.832585 707.176509c-2.917059-11.668237-0.560973-23.448669 6.282897-32.312041C341.071546 666.001096 351.954421 660.840145 363.959242 660.840145zM375.066506 749.922647c1.346335 5.497535 8.190205 10.77068 13.799934 10.77068l0 0 49.926591 0c21.877945 0 42.970527 16.604799 48.243673 37.697381l12.902378 51.385121c1.346335 5.38534 8.190205 10.77068 13.799934 10.77068l49.814397 0c5.609729 0 12.453599-5.38534 13.799934-10.77068L590.255725 798.390709c5.273146-21.092582 26.477923-37.697381 48.243673-37.697381l49.814397 0c5.609729 0 12.453599-5.38534 13.799934-10.77068l13.126767-53.180234c-0.112195-0.112195-0.673168-0.336584-1.907308-0.336584L362.276323 698.537526 375.066506 749.922647zM890.376246 716.376465l0-403.900515 35.45349 0 0 403.900515c0 22.99989-18.736496 41.736387-41.736387 41.736387L802.191301 758.112852l0-35.45349 82.014243 0C887.571382 722.659362 890.376246 719.854498 890.376246 716.376465zM710.416128 379.23173 365.754355 379.23173c-7.965816 0-14.360907-6.395091-14.360907-14.360907 0-7.965816 6.395091-14.360907 14.360907-14.360907l344.661773 0c7.965816 0 14.360907 6.395091 14.360907 14.360907C724.777035 372.724444 718.381944 379.23173 710.416128 379.23173zM641.865235 12.355429 193.086885 12.355429c-3.365838 0-6.282897 2.917059-6.282897 6.282897l0 697.850334c0 3.365838 2.917059 6.282897 6.282897 6.282897l82.014243 0 0 35.45349-82.014243 0c-22.99989 0-41.624192-18.736496-41.624192-41.736387l0-697.850334c0-22.99989 18.624302-41.736387 41.624192-41.736387l448.666155 0L641.75304 12.355429zM710.416128 292.841898 365.754355 292.841898c-7.965816 0-14.360907-6.395091-14.360907-14.360907 0-7.965816 6.395091-14.360907 14.360907-14.360907l344.661773 0c7.965816 0 14.360907 6.395091 14.360907 14.360907C724.777035 286.446806 718.381944 292.841898 710.416128 292.841898zM710.416128 464.948395 365.754355 464.948395c-7.965816 0-14.360907-6.395091-14.360907-14.360907 0-7.965816 6.395091-14.360907 14.360907-14.360907l344.661773 0c7.965816 0 14.360907 6.395091 14.360907 14.360907C724.777035 458.441109 718.381944 464.948395 710.416128 464.948395zM852.454476 191.305796c-0.112195 0-0.336584 0-0.448778 0-56.433878-0.336584-102.097075-46.111975-102.209269-102.658048 0-0.112195 0-0.112195 0-0.224389 0-4.263394 3.478032-7.741427 7.741427-7.741427s7.741427 3.478032 7.741427 7.741427l0 0c0 48.243673 39.155911 87.399584 87.399584 87.399584l0 0c4.1512 0.112195 7.517037 3.478032 7.517037 7.741427C860.195902 187.827764 856.71787 191.305796 852.454476 191.305796zM963.302728-41.722362c36.014463 30.629122 60.921661 77.302071 60.921661 128.350608 0 92.336146-74.83379 167.169935-167.169935 167.169935-0.112195 0-0.112195 0-0.224389 0-0.112195 0-0.112195 0-0.224389 0-91.999562 0-166.721157-74.609401-166.721157-166.721157 0-0.112195 0-0.112195 0-0.224389 0-0.112195 0-0.112195 0-0.224389 0-92.336146 74.83379-167.169935 167.169935-167.169935 33.882765 0 66.419196 11.668237 92.672729 28.946204l76.404514-76.404514 12.004821 12.004821L963.302728-41.722362zM856.605675-56.419853c-79.209379 0-143.496877 64.287499-143.496877 143.496877s64.287499 143.496877 143.496877 143.496877S1000.102553 166.286403 1000.102553 87.077024 935.815054-56.419853 856.605675-56.419853z"  horiz-adv-x="1078" />

    
    <glyph glyph-name="list-nav" unicode="&#58917;" d="M0 452.266667l1024 0 0-136.533333-1024 0 0 136.533333ZM0 110.933333l1024 0 0-136.533333-1024 0 0 136.533333ZM0 793.6l1024 0 0-136.533333-1024 0 0 136.533333Z"  horiz-adv-x="1024" />

    
    <glyph glyph-name="chat" unicode="&#58888;" d="M1023.928889 227.939556c1.607111 68.465778-25.472 134.812444-76.288 186.823111-28.231111 28.899556-62.848 52.266667-101.617778 69.333333 1.422222 11.477333 2.389333 23.04 2.389333 34.816 0 197.632-150.712889 346.026667-433.479111 348.615111C172.913778 869.76-4.394667 708.807111 0.085333 518.897778c2.531556-107.221333 61.838222-203.434667 154.709333-267.491556l-0.270222 0.128c0 0 0.199111-0.099556 0.298667-0.170667 2.773333-1.905778 5.603556-3.726222 8.419556-5.575111 2.076444-1.863111 3.584-3.925333 3.157333-5.816889 0 0-17.308444-49.009778-21.034667-57.344 0 0-17.137778-47.829333-12.387556-56.32 0 0 2.716444-12.544 24.775111 0.853333 0 0 77.368889 51.399111 80.241778 53.788444 0 0 19.171556 14.250667 21.219556 14.748444 0 0 0.824889 1.208889 2.744889 1.749333 22.314667-7.751111 45.696-13.866667 69.831111-18.360889 28.131556-135.751111 170.695111-239.388444 341.902222-239.388444 44.899556 0 88.476444 6.926222 129.564444 20.593778 2.773333-1.834667 8.803556-6.186667 13.468444-9.642667 2.247111-1.848889 36.465778-24.647111 65.152-43.704889C889.088-97.422222 895.274667-99.555556 900.821333-99.555556c8.789333 0 14.449778 5.376 16.483556 10.936889 1.92 4.053333 4.081778 14.222222-10.026667 53.489778-1.806222 4.053333-9.002667 23.964444-14.421333 39.239111 1.038222 0.711111 2.076444 1.408 3.128889 2.090667l-5.219556 7.623111-0.113778 0.241778 5.390222-7.808C975.288889 60.899556 1021.923556 141.724444 1023.928889 227.939556zM581.873778 675.825778c32.981333 0 59.719111-26.723556 59.719111-59.704889 0-32.995556-26.737778-59.733333-59.719111-59.733333-32.967111 0-59.704889 26.723556-59.704889 59.733333C522.168889 649.102222 548.906667 675.825778 581.873778 675.825778zM287.374222 567.253333c-32.967111 0-59.719111 26.737778-59.719111 59.733333 0 32.967111 26.752 59.704889 59.719111 59.704889s59.719111-26.737778 59.719111-59.704889C347.093333 593.991111 320.341333 567.253333 287.374222 567.253333zM870.072889 3.612444l0.312889-1.123556c1.450667-4.039111 14.023111-39.694222 16.768-45.724444 4.437333-12.387556 8.206222-25.799111 9.457778-33.180444-0.881778 0.426667-1.905778 0.981333-3.086222 1.706667-22.912 15.217778-60.344889 40.192-63.445333 42.481778-9.6 7.153778-14.307556 10.368-16.952889 11.946667-1.365333 1.137778-3.228444 2.261333-5.674667 2.958222l-3.256889 0.896-3.2-1.123556c-40.234667-13.937778-83.072-21.034667-127.303111-21.034667-179.384889 0-325.333333 119.694222-325.333333 266.808889 0 162.645333 128.156444 264.888889 334.435556 266.766222l3.854222 0.014222c96.796444 0 186.254222-34.787556 245.489778-95.416889 46.677333-47.772444 71.580444-108.572444 70.115556-171.107556-1.863111-79.203556-45.056-153.699556-118.499556-204.359111L878.933333 20.935111l-3.000889-2.104889C869.148444 12.785778 869.333333 6.712889 870.072889 3.612444zM562.872889 359.594667c-32.184889 0-58.353778-26.168889-58.353778-58.368 0-32.170667 26.168889-58.368 58.353778-58.368 32.199111 0 58.368 26.211556 58.368 58.368C621.240889 333.425778 595.072 359.594667 562.872889 359.594667zM562.872889 264.590222c-20.209778 0-36.622222 16.440889-36.622222 36.650667 0 20.195556 16.412444 36.650667 36.622222 36.650667 20.224 0 36.650667-16.455111 36.650667-36.650667C599.523556 281.031111 583.096889 264.590222 562.872889 264.590222zM797.340444 365.354667c-32.184889 0-58.368-26.168889-58.368-58.353778s26.183111-58.368 58.368-58.368 58.353778 26.183111 58.353778 58.368S829.525333 365.354667 797.340444 365.354667zM797.340444 270.378667c-20.195556 0-36.636444 16.412444-36.636444 36.636444 0 20.209778 16.440889 36.636444 36.636444 36.636444 20.209778 0 36.650667-16.426667 36.650667-36.636444C834.005333 286.791111 817.550222 270.378667 797.340444 270.378667z"  horiz-adv-x="1024" />

    
    <glyph glyph-name="type-search" unicode="&#58903;" d="M86.803483 640.125355 320.953338 640.125355c6.963599 22.214954 15.225773 43.449581 24.448832 63.74993L86.803483 703.875285c-12.602016 0-22.829961-14.280238-22.829961-31.875988C63.974545 654.405593 74.201467 640.125355 86.803483 640.125355L86.803483 640.125355zM89.113085 316.217221l292.821115 0c-11.596106 20.200064-22.167882 41.430598-31.232328 63.940265L89.113085 380.157485c-13.44522 0-24.357757-14.292518-24.357757-31.971156C64.756351 330.507692 75.667865 316.217221 89.113085 316.217221L89.113085 316.217221zM864.956216 64.419428l-776.617773 0c-13.396101 0-24.26873-14.280238-24.26873-31.953759 0-17.674545 10.872628-31.955806 24.26873-31.955806l776.617773 0c13.419637 0 24.26873 14.280238 24.26873 31.955806C889.224945 50.13919 878.375853 64.419428 864.956216 64.419428L864.956216 64.419428zM954.333826 154.009885l-134.892223 137.825019c57.589626 49.586348 91.324962 119.535467 92.205005 201.487967 1.623987 151.293775-119.717615 275.266297-271.004227 276.889261-151.287635 1.623987-275.268344-119.719662-276.891308-271.007297-1.623987-151.282518 119.722732-275.262204 271.010367-276.886191 52.756551-0.566912 91.296309 4.558829 133.376707 29.933753l139.659807-142.688793c8.854669-9.05012 31.270191-2.25332 40.271192 6.604418 8.998955 8.804527 15.075347 28.844955 6.269797 37.842887L954.333826 154.009885zM635.458311 287.261749c-115.438149 1.237177-208.006428 95.837742-206.768227 211.250308 1.239224 115.430986 95.818299 208.001311 211.254402 206.762087 115.391077-1.238201 207.999264-95.818299 206.761064-211.249285C845.466326 378.612293 750.848365 286.021501 635.458311 287.261749L635.458311 287.261749zM634.73381 292.930865"  horiz-adv-x="1024" />

    
    <glyph glyph-name="help" unicode="&#58899;" d="M512 893.725c-281.486 0-509.725-228.238-509.725-509.725s228.238-509.725 509.725-509.725 509.725 228.238 509.725 509.725-228.238 509.725-509.725 509.725zM917.731 546.702l-139.947-43.008c-14.336 31.858-34.361 60.985-59.847 86.471s-54.613 45.511-86.471 59.847l43.008 139.947c54.158-21.618 103.765-54.386 146.318-96.711 42.553-42.781 75.321-92.387 96.939-146.546zM512 165.547c-120.605 0-218.453 97.849-218.453 218.453s97.849 218.453 218.453 218.453 218.453-97.849 218.453-218.453c0-120.605-97.849-218.453-218.453-218.453zM202.979 693.021c42.553 42.553 92.16 75.093 146.318 96.711l43.008-139.947c-31.858-14.336-60.985-34.361-86.471-59.847-25.486-25.486-45.511-54.613-59.847-86.471l-139.947 43.008c21.845 54.386 54.613 103.993 96.939 146.546zM106.269 221.298l139.947 43.008c14.336-31.858 34.361-60.985 59.847-86.471s54.613-45.511 86.471-59.847l-43.008-139.947c-54.158 21.618-103.765 54.386-146.318 96.711-42.553 42.781-75.321 92.387-96.939 146.546zM821.021 74.979c-42.553-42.553-92.16-75.093-146.318-96.711l-43.008 139.947c31.858 14.336 60.985 34.361 86.471 59.847s45.511 54.613 59.847 86.471l139.947-43.008c-21.845-54.386-54.613-103.993-96.939-146.546z"  horiz-adv-x="1024" />

    
    <glyph glyph-name="database" unicode="&#58912;" d="M168.875 387.75l110.625 0c11.25 0 18.75 7.5 18.75 18.75 0 9.375-9.375 18.75-18.75 18.75l-110.625 0c-11.25 0-18.75-9.375-18.75-18.75 0-11.25 7.5-18.75 18.75-18.75l0 0zM168.875 457.125l0 0 110.625 0c11.25 0 18.75 7.5 18.75 18.75s-9.375 18.75-18.75 18.75l-110.625 0c-11.25 0-18.75-7.5-18.75-18.75s7.5-18.75 18.75-18.75l0 0zM930.125 699l0 0-226.875 0 0 63.75c0 16.875-15 31.875-31.875 31.875l-318.75 0c-16.875 0-31.875-15-31.875-31.875l0-63.75-226.875 0c-16.875 0-31.875-15-31.875-31.875l0-616.875c0-16.875 15-31.875 31.875-31.875l226.875 0 0-13.125c0-16.875 13.125-31.875 31.875-31.875l318.75 0c16.875 0 31.875 15 31.875 31.875l0 13.125 226.875 0c16.875 0 31.875 15 31.875 31.875l0 616.875c0 16.875-13.125 31.875-31.875 31.875l0 0zM320.75 82.125l0 0-195 0 0 553.125 196.875 0 0-553.125-1.875 0zM639.5 37.125l0 0-255 0 0 693.75 255 0 0-693.75zM898.25 82.125l0 0-195 0 0 553.125 195 0 0-553.125zM168.875 526.5l0 0 110.625 0c11.25 0 18.75 7.5 18.75 18.75s-9.375 18.75-18.75 18.75l-110.625 0c-11.25 0-18.75-9.375-18.75-18.75 0-11.25 7.5-18.75 18.75-18.75l0 0zM273.875 237.75l0 0c-13.125 13.125-30 20.625-50.625 20.625-18.75 0-37.5-7.5-50.625-20.625-13.125-13.125-20.625-30-20.625-48.75 0-18.75 7.5-35.625 18.75-48.75l3.75-1.875c13.125-13.125 30-20.625 50.625-20.625 18.75 0 37.5 7.5 50.625 20.625 13.125 13.125 20.625 30 20.625 50.625-1.875 18.75-9.375 35.625-22.5 48.75l0 0 0 0zM245.75 166.5l0 0c-5.625-5.625-15-9.375-22.5-9.375-9.375 0-16.875 3.75-22.5 9.375l-1.875 0c-5.625 5.625-9.375 13.125-9.375 22.5s3.75 16.875 9.375 22.5l0 0c5.625 5.625 13.125 9.375 22.5 9.375s16.875-3.75 22.5-9.375l0 0c5.625-5.625 9.375-13.125 9.375-22.5 1.875-9.375 0-16.875-7.5-22.5l0 0zM746.375 457.125l0 0 110.625 0c11.25 0 18.75 7.5 18.75 18.75s-7.5 18.75-18.75 18.75l-110.625 0c-11.25 0-18.75-7.5-18.75-18.75-1.875-11.25 7.5-18.75 18.75-18.75l0 0zM746.375 387.75l0 0 110.625 0c11.25 0 18.75 7.5 18.75 18.75 0 9.375-7.5 18.75-18.75 18.75l-110.625 0c-11.25 0-18.75-9.375-18.75-18.75-1.875-11.25 7.5-18.75 18.75-18.75l0 0zM746.375 526.5l0 0 110.625 0c11.25 0 18.75 7.5 18.75 18.75s-7.5 18.75-18.75 18.75l-110.625 0c-11.25 0-18.75-9.375-18.75-18.75-1.875-11.25 7.5-18.75 18.75-18.75l0 0zM444.5 423.375l0 0 136.875 0c11.25 0 18.75 7.5 18.75 18.75s-9.375 18.75-18.75 18.75l-136.875 0c-11.25 0-18.75-9.375-18.75-18.75 0-11.25 7.5-18.75 18.75-18.75l0 0zM851.375 237.75l0 0c-13.125 13.125-30 20.625-50.625 20.625-18.75 0-37.5-7.5-50.625-20.625-13.125-13.125-20.625-30-20.625-48.75 0-18.75 7.5-35.625 20.625-48.75l0-1.875c13.125-13.125 30-20.625 50.625-20.625s37.5 7.5 50.625 20.625c13.125 13.125 20.625 30 20.625 50.625 0 18.75-7.5 35.625-20.625 48.75l0 0 0 0zM823.25 166.5l0 0c-5.625-5.625-13.125-9.375-22.5-9.375s-16.875 3.75-22.5 9.375l0 0c-5.625 5.625-9.375 13.125-9.375 22.5s3.75 16.875 9.375 22.5l0 0c5.625 5.625 15 9.375 22.5 9.375 9.375 0 16.875-3.75 22.5-9.375l0 0c5.625-5.625 9.375-13.125 9.375-22.5 1.875-9.375-1.875-16.875-9.375-22.5l0 0zM444.5 594l0 0 136.875 0c11.25 0 18.75 7.5 18.75 18.75s-9.375 18.75-18.75 18.75l-136.875 0c-11.25 0-18.75-7.5-18.75-18.75s7.5-18.75 18.75-18.75l0 0zM444.5 507.75l0 0 136.875 0c11.25 0 18.75 9.375 18.75 18.75 0 11.25-9.375 18.75-18.75 18.75l-136.875 0c-11.25 0-18.75-7.5-18.75-18.75 0-9.375 7.5-18.75 18.75-18.75l0 0zM572 232.125l0 0 0 0c-16.875 15-35.625 24.375-60 24.375-22.5 0-43.125-9.375-58.125-22.5l0-1.875c-15-15-24.375-35.625-24.375-58.125s9.375-43.125 24.375-58.125c15-15 35.625-24.375 58.125-24.375s43.125 9.375 58.125 24.375l0 0c15 15 24.375 35.625 24.375 58.125s-9.375 43.125-22.5 58.125l0 0zM543.875 144l0 0c-7.5-7.5-18.75-13.125-31.875-13.125s-24.375 5.625-31.875 13.125l0 0 0 0c-7.5 7.5-13.125 18.75-13.125 30 0 13.125 5.625 24.375 13.125 31.875l0 0c7.5 7.5 18.75 13.125 30 13.125 13.125 0 22.5-5.625 31.875-13.125l0 0c7.5-7.5 11.25-18.75 11.25-30 3.75-13.125-1.875-24.375-9.375-31.875l0 0z"  horiz-adv-x="1024" />

    
    <glyph glyph-name="editor" unicode="&#58914;" d="M924.125827 579.377806c-10.766205 0-19.493983-8.727779-19.493983-19.493983l0-447.203228c0-75.324546-61.281715-136.607284-136.606261-136.607284L256.01535-23.92669c-75.324546 0-136.606261 61.281715-136.606261 136.607284L119.409089 624.689804c0 75.325569 61.281715 136.607284 136.606261 136.607284L664.241868 761.297089c10.766205 0 19.493983 8.727779 19.493983 19.493983s-8.727779 19.493983-19.493983 19.493983L256.01535 800.285055c-96.823186 0-175.594227-78.771041-175.594227-175.594227l0-512.00921c0-96.823186 78.771041-175.594227 175.594227-175.594227L768.025583-62.912609c96.823186 0 175.59525 78.771041 175.59525 175.594227L943.620833 559.883823C943.61981 570.650027 934.892031 579.377806 924.125827 579.377806zM368.293529 286.216953c3.806699-3.806699 8.795317-5.710049 13.783934-5.710049s9.977235 1.90335 13.783934 5.710049L907.281183 797.635715c7.612375 7.612375 7.612375 19.955494 0 27.567869s-19.955494 7.612375-27.568892 0L368.293529 313.785845C360.680131 306.172447 360.680131 293.830351 368.293529 286.216953z"  horiz-adv-x="1024" />

    
    <glyph glyph-name="advisory" unicode="&#58926;" d="M315.333 97.121l0 46.745-38.387 0.467c-109.583 1.361-198.719 91.625-198.719 201.226 0 90.282 59.728 166.862 141.731 192.305 4.761 29.116 12.517 57.241 22.916 84.063-136.56-18.017-242.391-134.928-242.391-276.348 0-138.893 103.305-255.415 237.105-275.804l0-160.313 191.858 191.858c-22.955 13.139-44.549 28.3-64.587 45.326l-49.525-49.525zM638.347 854.445c-212.713 0-385.134-172.421-385.134-385.153 0-211.061 169.797-382.374 380.217-385.017l0-163.85 263.17 263.15c77.94 70.476 126.921 172.381 126.921 285.716-0.039 212.732-172.479 385.153-385.172 385.153z"  horiz-adv-x="1024" />

    
    <glyph glyph-name="exam" unicode="&#58901;" d="M674.72 172.795l0 150.606 50.205 0 0-133.87 100.406 0 0-50.205-150.611 0 0 33.469zM1001.042 172.795l-50.205 0c-4.623 0-8.366 3.742-8.366 8.366l0 8.37-0.423 0c-4.432 120.863-103.541 217.543-225.487 217.543-124.777 0-225.916-101.138-225.916-225.914 0-124.77 101.139-225.916 225.916-225.916 53.843 0 102.986 19.183 141.767 50.679l-99.933 99.926 200.813 0 0-200.811-53.36 53.358c-51.053-43.516-116.944-70.091-189.289-70.091-161.737 0-292.851 131.115-292.851 292.853s131.115 292.851 292.851 292.851c154.581 0 280.541-119.937 291.431-271.74 0.815-1.289 1.418-2.727 1.418-4.381l0-16.731c0-4.624-3.744-8.366-8.367-8.366l0 0zM173.236 591.156l0 50.199 568.42 0 0-50.199-568.42 0zM172.689 189.532l200.813 0 0-50.205-200.813 0 0 50.205zM173.236 414.281l220.636 0 0-50.205-220.636 0 0 50.205zM842.064 791.97c0 18.483-14.983 33.469-33.467 33.469l-702.844 0c-18.485 0-33.469-14.986-33.469-33.469l0-769.779c0-18.485 14.983-33.469 33.469-33.469l326.816 0c16.914-24.927 37.189-47.296 59.905-66.938l-411.823 0c-41.591 0-75.303 33.711-75.303 75.298l0 819.989c0 41.591 33.713 75.303 75.303 75.303l753.049 0c41.591 0 75.303-33.713 75.303-75.303l0-351.915c-20.755 14.086-43.257 25.721-66.938 35.04l0 291.772-0.002 0z"  horiz-adv-x="1024" />

    
    <glyph glyph-name="critique" unicode="&#58911;" d="M951.416891 385.359974c0.01535 0.915859-0.01228 1.803066-0.061398 2.676969C946.153004 615.17408 777.75876 797.214113 552.980343 824.435081 326.59636 851.850477 117.871571 683.06226 76.016301 464.272231c-42.707684-223.24755 100.773148-439.786305 314.585815-503.817644 219.211631-65.649186 446.548312 61.211107 531.320021 266.400373 20.297278 49.128931 28.308743 103.072517 29.440519 155.944701C951.405635 383.635703 951.432241 384.485047 951.416891 385.359974zM510.128373 5.649929c-209.705116-3.612271-376.188848 175.455057-379.706975 379.710045-3.612271 209.704093 175.450964 376.191918 379.706975 379.710045 209.707163 3.612271 376.196011-175.450964 379.714138-379.710045C886.23024 175.667138 719.820186 9.2622 510.128373 5.649929zM479.344253 611.390917c0-104.268762 0-208.5365 0-312.805262 0-39.70735 61.574381-39.70735 61.574381 0 0 104.268762 0 208.5365 0 312.805262C540.918633 651.099291 479.344253 651.099291 479.344253 611.390917zM510.131443 218.335936c-16.783245 0-30.78719-14.004969-30.78719-30.78719 0-15.791661 0-31.582299 0-47.37396 0-16.783245 14.004969-30.78719 30.78719-30.78719 16.783245 0 30.78719 14.004969 30.78719 30.78719 0 15.791661 0 31.582299 0 47.37396C540.918633 204.331991 526.914688 218.335936 510.131443 218.335936z"  horiz-adv-x="1024" />

    
    <glyph glyph-name="individual" unicode="&#58907;" d="M859.882152 203.588047c-40.154535 52.0474-71.075779 99.075483-140.688229 118.253264l-82.877569-240.001119c0-20.880563-17.222243-37.983079-38.248116-37.983079-21.034059 0-38.256302 17.101493-38.256302 37.983079L559.811936 262.273634c0 26.205848-21.423939 59.567677-47.811936 59.567677-26.39209 0-47.811936-33.361829-47.811936-59.567677l0-180.432419c0-20.880563-17.214057-37.983079-38.252209-37.983079-21.038152 0-38.252209 17.101493-38.252209 37.983079l-65.220421 226.764654c-69.612451-19.364023-118.187773-52.971445-158.357658-105.017822-15.875572-20.516266-24.485671-61.72276-25.053606-83.763752 0.190335-5.689582 0-12.353352 0-18.99154l0-37.983079 0-37.987173c0-41.97295 34.236755-75.969229 76.500325-75.969229l592.896448 0c42.263569 0 76.500325 33.996279 76.500325 75.969229l0 37.987173 0 37.983079c0 6.638187-0.186242 13.301957 0 18.99154C884.367823 141.865287 875.756701 183.071781 859.882152 203.588047zM311.183322 618.162134c0-110.915136 69.616544-213.44223 200.816678-213.44223 128.912022 0 200.820772 102.528118 200.820772 213.44223S622.923322 819.106726 512 819.106726 311.183322 729.07727 311.183322 618.162134z"  horiz-adv-x="1024" />

    
    <glyph glyph-name="service" unicode="&#58902;" d="M979.527 46.926c-31.754 17.802-72.367 33.614-119.586 46.894L859.941 718.566c0 38.882-27.127 69.671-65.973 69.671L389.424 788.237c-38.858 0-67.52-30.789-67.52-69.671l0-591.552c-6.959-0.803-13.784-1.697-20.609-2.604 0.041 1.349 0.186 2.663 0.186 4.022 0 63.16-47.253 114.367-105.536 114.367-58.288 0-105.535-51.207-105.535-114.367 0-17.708 3.825-34.416 10.458-49.393-26.516-9.406-50.282-19.685-70.473-30.789-76.915-73.275 20.139-68.903 20.139-68.903l901.728-0.465C952.262-21.117 1095.289-30.559 979.527 46.926zM634.312 631.478c0 19.44 15.279 34.835 34.709 34.835l69.426 0c19.43 0 34.707-15.395 34.707-34.835l0-95.786c0-19.44-15.277-34.835-34.707-34.835l-60.752 0c-19.43 0-43.383 15.395-43.383 34.835L634.312 631.478zM634.312 378.933c0 19.44 15.279 34.835 34.709 34.835l69.426 0c19.43 0 34.707-15.395 34.707-34.835l0-95.81c0-19.417-15.277-34.812-34.707-34.812l-60.752 0c-19.43 0-43.383 15.395-43.383 34.812L634.312 378.933zM408.685 631.478c0 19.44 15.278 34.835 34.708 34.835l69.426 0c19.43 0 34.709-15.395 34.709-34.835l0-95.786c0-19.44-15.279-34.835-34.709-34.835l-60.746 0c-19.43 0-43.388 15.395-43.388 34.835L408.685 631.478zM408.685 378.933c0 19.44 15.278 34.835 34.708 34.835l69.426 0c19.43 0 34.709-15.395 34.709-34.835l0-95.81c0-19.417-15.279-34.812-34.709-34.812l-60.746 0c-19.43 0-43.388 15.395-43.388 34.812L408.685 378.933z"  horiz-adv-x="1025" />

    
    <glyph glyph-name="success" unicode="&#58915;" d="M449.486 341.038l-178.64 142.25-79.189-64.444 308.929-319.051c53.412 138.117 221.894 408.381 427.695 600.365l-18.86 44.201c-224.206-139.519-386.717-314.937-459.935-403.319zM939.659 473.857l-44.309 0c6.754-28.854 10.304-58.928 10.304-89.857 0-217.415-176.255-393.671-393.671-393.671s-393.653 176.255-393.653 393.671 176.255 393.671 393.671 393.671c52.939 0 103.42-10.467 149.514-29.401l0 46.385c-47.787 17.422-97.995 26.251-149.514 26.251-58.964 0-116.18-11.559-170.084-34.352-52.029-22.01-98.741-53.503-138.864-93.626-40.105-40.105-71.616-86.835-93.607-138.864-22.791-53.885-34.352-111.102-34.352-170.066s11.559-116.18 34.352-170.084c21.991-52.029 53.503-98.759 93.607-138.864 40.123-40.105 86.835-71.616 138.864-93.626 53.903-22.773 111.12-34.334 170.084-34.334 58.946 0 116.199 11.559 170.084 34.352 52.029 22.01 98.759 53.503 138.864 93.626s71.616 86.835 93.626 138.864c22.773 53.885 34.334 111.102 34.334 170.066 0 30.493-3.131 60.512-9.248 89.857z"  horiz-adv-x="1024" />

    
    <glyph glyph-name="news" unicode="&#58935;" d="M279.423246 479.02197l465.207742 0 0-35.746168-465.207742 0L279.423246 479.02197 279.423246 479.02197zM279.423246 264.399653l357.860768 0 0-35.747191-357.860768 0L279.423246 264.399653 279.423246 264.399653zM512.008698 711.516347c226.943959 0 411.49844-164.860933 411.49844-367.543301 0-201.663154-183.716392-366.560926-409.551086-367.434831l-6.533817-0.072655-6.116307-2.329047c-120.925238-46.156272-200.37174-75.714501-223.704168-83.067987-6.91551-2.183738-11.393503-2.62069-13.959957-2.62069-0.163729 0-0.327458 0-0.491187 0L263.150615 50.796551l-14.37849 10.774402c-94.243525 70.109848-148.280286 173.051484-148.280286 282.402094C100.492862 546.654391 285.101578 711.516347 512.008698 711.516347M512.008698 747.299354c-247.056039 0-447.298843-180.587119-447.298843-403.326308 0-125.220058 63.301785-237.118703 162.659799-311.085395l0-154.26868c0 0 4.913921-25.918325 36.291591-25.918325 6.898114 0 15.033406 1.238202 24.698543 4.295844 30.559024 9.682533 138.507702 50.378438 225.74362 83.72188 246.036825 1.019214 445.18776 181.133565 445.18776 403.253653C959.290145 566.712236 759.046318 747.299354 512.008698 747.299354L512.008698 747.299354 512.008698 747.299354zM512.008698 747.299354"  horiz-adv-x="1024" />

    
    <glyph glyph-name="window" unicode="&#58932;" d="M1013.569 565.17c-0.073 0.546-0.182 1.056-0.291 1.492-0.437 2.112-1.02 4.15-1.857 6.116l-85.343 212.446c-14.782 44.054-57.235 71.07-106.896 71.18l-599.036 0c-50.317 0-89.42-26.761-103.583-69.068l-91.75-216.779c-0.437-1.275-0.91-3.168-1.311-5.098-6.662-20.462-10.013-41.47-10.013-62.55 0.073-74.128 40.741-141.812 106.096-176.656 0 0 0-0.036 0.036-0.036s0.036 0 0.036-0.036l0 0c0 0 0.036 0 0.036-0.036 26.907-14.346 58.545-21.627 94.19-21.627 59.747 0.182 115.088 26.433 152.809 71.361 37.537-44.564 92.443-70.634 152.08-70.997 59.165 0.474 113.923 26.652 151.279 71.18 37.719-44.929 93.134-71.07 153.172-71.07 36.336 0.182 68.594 7.828 95.756 22.719 64.371 35.171 104.311 102.601 104.275 175.964 0.109 21.081-3.349 42.235-9.684 61.494zM884.135 391.61c-16.493-9.029-37.065-13.653-60.985-13.799-44.346 0-84.759 22.5-108.353 60.693-1.675 3.604-4.478 9.575-9.722 15.328-6.007 6.736-16.93 14.709-34.916 14.709-14.491 0-27.634-5.935-35.061-15.037-4.915-5.534-7.61-11.031-9.539-15.037-23.301-37.719-63.388-60.438-106.823-60.767-43.982 0.255-84.177 22.901-107.625 60.912-1.638 3.349-4.369 8.993-8.629 13.762-17.113 20.426-55.414 19.37-70.342 1.566-5.498-6.007-8.374-12.051-10.23-16.165-23.52-37.719-63.97-60.33-108.098-60.475-23.52 0-43.654 4.405-59.892 13.071 0 0-0.036 0-0.036 0 0 0 0 0-0.036 0-41.652 22.173-67.538 65.281-67.574 112.467 0 13.945 2.331 27.999 6.991 41.689 0.327 0.983 0.619 2.076 0.874 3.204l90.367 213.647c1.857 5.461 7.463 22.1 35.571 22.1l599.217 0c11.541-0.692 31.421-2.731 38.484-23.52l84.614-210.699c0.327-1.53 0.729-2.986 1.092-4.187 4.697-13.726 7.027-27.67 7.027-41.506 0.073-46.64-25.377-89.53-66.373-111.957zM911.442 274.773c-20.134 0-36.409-16.275-36.409-36.409l0.073-198.646c0-11.286-9.212-20.462-20.462-20.498l-685.034-0.437c-11.286 0-20.462 9.102-20.462 20.316l-0.255 195.225c-0.036 20.098-16.348 36.336-36.409 36.336 0 0-0.036 0-0.073 0-20.098-0.036-36.372-16.348-36.336-36.482l0.255-195.116c0-51.337 41.834-93.098 93.28-93.098l685.142 0.437c51.373 0.109 93.17 41.98 93.17 93.353l-0.073 198.61c0 20.134-16.311 36.409-36.409 36.409zM803.271 529.635l-582.542 0c-20.098 0-36.409 16.311-36.409 36.409s16.311 36.409 36.409 36.409l582.542 0c20.134 0 36.409-16.311 36.409-36.409s-16.275-36.409-36.409-36.409z"  horiz-adv-x="1024" />

    
    <glyph glyph-name="booking" unicode="&#58929;" d="M970.437-49.992 438.863-49.992c-13.988 0-25.372 11.45-25.372 25.538l0 59.458c0 120.416 72.043 227.244 183.511 272.112l6.712 2.672-5.676 4.506c-42.197 33.417-66.435 83.293-66.435 136.908 0 96.046 77.65 174.198 173.062 174.198s173.03-78.152 173.03-174.198c0-53.615-24.203-103.523-66.401-136.908l-5.675-4.506 6.71-2.672c111.469-44.868 183.512-151.696 183.512-272.112l0-59.458C995.842-38.542 984.457-49.992 970.437-49.992zM468.875 500.61c-9.48-60.959 0.201-126.793 39.06-173.463l6.51-5.175-7.678-3.071C411.722 280.476 364.65 195.414 346.79 97.298c-17.226-0.634-27.341-0.533-27.341-0.533C177.633 124.306 66.665 234.307 36.251 377.724c-20.097 94.844-2.471 192.092 49.642 273.782 52.112 81.69 132.367 137.909 225.976 158.307 24.972 5.442 50.477 8.179 75.749 8.179 104.424 0 206.413-48.24 274.149-129.33 0 0 3.472-5.909 9.214-16.425C561.983 671.837 480.593 575.892 468.875 500.61zM389.02 646.332l-49.574 0 0-188.954L226.173 343.172l36.689-27.242L389.02 443.19 389.02 646.332z"  horiz-adv-x="1024" />

    
    <glyph glyph-name="apply" unicode="&#58920;" d="M901.910895 108.41138C898.342512 72.767655 887.096095 20.424704 832.828623-70.969976L608.020562-70.969976C583.543066-30.03382 503.074049 88.183865 382.310383 104.442056 364.147719 106.8878 338.848293 119.236808 338.848293 128.037481 338.848293 138.101118 355.88832 147.723721 363.646544 150.570409 364.027437 150.710739 403.359826 164.583324 437.359691 164.583324 453.33722 164.583324 493.671966 148.325134 514.24028 135.535092L553.071491 111.358302 553.312056 524.167967C553.312056 540.345968 564.337956 553.496858 577.869742 553.496858L582.219958 553.496858C595.771792 553.496858 606.777644 540.345968 606.777644 524.167967L606.777644 283.562801 657.69725 283.562801 657.69725 592.107552C657.69725 608.265508 668.743198 621.416398 682.254935 621.416398L686.605155 621.416398C700.156985 621.416398 711.182885 608.265508 711.182885 592.107552L711.182885 283.562801 762.102492 283.562801 762.102492 492.754177C762.102492 508.912133 773.108344 522.063023 786.680225 522.063023L791.010396 522.063023C804.542182 522.063023 815.568079 508.912133 815.568079 492.754177L815.568079 283.562801 866.487688 283.562801 866.487688 423.812238C866.487688 438.426567 875.0077 449.332182 882.605548 449.332182L886.214024 449.332182C893.811869 449.332182 902.311836 438.426567 902.311836 423.812238L901.910895 108.41138 901.910895 108.41138ZM953.231442 423.812238C953.231442 465.95122 923.160808 500.25179 886.214024 500.25179L882.605548 500.25179C876.992362 500.25179 871.539555 499.449906 866.307264 497.946374 863.781331 539.764604 830.964244 572.982629 791.010396 572.982629L786.680225 572.982629C778.080024 572.982629 769.820622 571.418956 762.102492 568.592317L762.102492 592.107552C762.102492 636.331433 728.222912 672.315958 686.605155 672.315958L682.254935 672.315958C643.123018 672.315958 610.847202 640.48118 607.158539 599.885824 599.340174 602.792653 590.96049 604.396419 582.219958 604.396419L577.869742 604.396419C536.272029 604.396419 502.412495 568.411893 502.412495 524.167967L502.312261 198.282482C480.561169 207.504142 455.602543 215.482885 437.359691 215.482885 394.358684 215.482885 348.410755 199.184601 346.64661 198.563141 324.835378 190.885106 287.928686 167.409964 287.928686 128.037481 287.928686 76.957496 351.177253 57.271254 375.534467 53.983532 492.529282 38.226519 577.8096-121.869537 577.8096-121.869537L861.475915-121.869537C861.475915-121.869537 945.633597 38.587367 952.349371 101.174379 953.411866 105.424364 953.231442 423.812238 953.231442 423.812238L953.231442 423.812238ZM545.694163 808.074848C547.157599 808.074848 548.600989 808.19513 550.024334 808.415648L550.024334 889.506125C548.280238 889.806831 546.516093 889.967208 544.691807 889.967208L306.271773 889.967208C304.928618 889.967208 303.585463 889.866973 302.282402 889.706596L302.282402 808.33546C303.585463 808.175083 304.928618 808.074848 306.271773 808.074848L545.694163 808.074848M601.745825 631.299614C602.80832 631.299614 603.830722 631.419897 604.873171 631.540179L604.873171 678.991639C603.830722 679.152016 602.80832 679.232204 601.745825 679.232204L249.237804 679.232204C247.754319 679.232204 246.330976 679.091874 244.92768 678.831262L244.92768 631.740648C246.330976 631.480038 247.754319 631.299614 249.237804 631.299614L601.745825 631.299614M683.638185 820.063007C711.603874 820.063007 730.568422 801.078414 730.568422 773.132771L730.568422 682.640209 777.298187 682.640209 777.518704 772.130416C777.518704 826.057087 744.561289 866.993244 683.638185 866.993244L636.707947 866.993244C635.565263 866.993244 634.402534 866.933102 633.239802 866.81282L633.239802 820.363714C634.402534 820.163243 635.565263 820.063007 636.707947 820.063007L683.638185 820.063007M483.64842 501.494709 483.64842 549.407252 249.237804 549.407252C247.754319 549.407252 246.330976 549.246876 244.92768 549.006311L244.92768 501.89565C246.330976 501.63504 247.754319 501.494709 249.237804 501.494709L483.64842 501.494709M119.392805 232.843664 119.392805 773.112724C119.392805 801.078414 138.377399 820.04296 166.323042 820.04296L225.241438 820.04296C225.722568 820.04296 226.183651 820.063007 226.644734 820.103101L226.644734 866.933102C226.183651 866.953149 225.722568 866.993244 225.241438 866.993244L166.323042 866.993244C100.428259 866.993244 72.462569 826.03704 72.462569 772.110369L72.462569 237.835389C72.462569 179.919348 107.404646 138.983192 171.314767 138.983192L245.529092 138.983192 245.529092 185.913426 178.311201 185.913426C150.345511 185.913426 119.392805 204.877974 119.392805 232.843664M481.122486 408.616543 249.217757 408.616543C247.754319 408.616543 246.310929 408.456167 244.907632 408.195554L244.907632 361.104941C246.310929 360.84433 247.754319 360.683952 249.217757 360.683952L482.385453 360.683952 481.122486 408.616543"  horiz-adv-x="1024" />

    
    </font>
</defs>
</svg>
